<svg version="1.1" xmlns="http://www.w3.org/2000/svg" xmlns:xlink="http://www.w3.org/1999/xlink" width="559.49979" height="457.05531" viewBox="0,0,559.49979,457.05531"><g transform="translate(66.4788,66.94172)"><g data-paper-data="{&quot;isPaintingLayer&quot;:true}" fill-rule="nonzero" stroke-linejoin="miter" stroke-miterlimit="10" stroke-dasharray="" stroke-dashoffset="0" style="mix-blend-mode: normal"><path d="M475.38789,374.28417l-234.20737,-129.9119l-195.78272,128.08216z" fill="#525252" stroke="#000000" stroke-width="0.5" stroke-linecap="round"/><path d="M32.58959,381.60315l207.67606,-137.23088v-296.41869l-306.4823,53.97748l21.95694,387.90595z" fill="#7b7b7b" stroke="#000000" stroke-width="0.5" stroke-linecap="round"/><path d="M239.35078,-59.3654l1.82975,302.8228l250.67507,139.9755l0.91487,-450.11728z" fill="#7b7b7b" stroke="#000000" stroke-width="0.5" stroke-linecap="round"/><path d="M155.18251,36.69621l8.23386,124.42266l-94.23187,33.85029l-3.65949,-129.9119z" fill="#920000" stroke="#000000" stroke-width="1" stroke-linecap="round"/><path d="M131.14613,124.53644c-0.01247,-0.24969 0.23722,-0.26216 0.23722,-0.26216l0.04058,-0.00203c1.16831,-0.05835 1.18594,-0.36089 1.93036,-0.86423c0.12491,-0.08446 0.27913,-0.12815 0.45288,-0.14553c-0.2786,-3.0499 -1.10709,-6.13869 -1.88385,-9.08544c-0.41787,-1.00542 -0.42318,-2.16272 -0.5135,-3.25572c0.25836,1.05266 0.57132,2.08867 0.9872,3.09568c0.7965,2.99444 1.63467,6.14773 1.91242,9.25133c0.87501,0.07842 1.95534,0.41347 2.4275,-0.19165c0.29515,-0.37827 -0.17945,-1.11691 0.36384,-1.50895c0.25777,-0.186 1.17458,-0.0617 1.50755,-0.05165c0.50235,-1.17002 2.00088,-1.38894 2.88584,-2.10044c1.75498,-1.41099 2.15271,-3.25427 4.35167,-4.29097c0.13094,-1.43086 1.29645,-1.61899 1.81476,-2.79251c0.91297,-2.06705 0.86778,-4.35988 0.86778,-6.65864c0,-3.49871 0.00526,-6.99747 -0.00209,-10.49618c-0.03761,-1.31858 -0.46648,-1.55285 -0.89451,-2.61003c-0.90859,-2.2441 0.83613,-5.13195 -0.62094,-7.27946c-1.75242,-2.68386 -0.28321,-7.17241 -4.49361,-7.17241c-3.49883,0 -6.99867,-0.0241 -10.49731,0.01269c-0.40318,0.00424 -2.03701,-0.18872 -2.31907,0.09181c-0.44917,0.44674 -0.11791,1.3498 -1.03288,1.70804c-0.82023,0.32115 -2.17124,0.19315 -3.33069,0.09318c0.42067,1.26599 0.89422,2.50678 1.2558,3.63349c0.34709,1.08154 1.09682,2.16197 1.35438,3.23699c0.50013,2.08755 0.04379,4.87959 0.03724,7.03032c0.44873,1.95314 1.27304,3.78485 1.74303,5.6715c0.35797,1.43697 -0.03378,3.01235 0.30334,4.47761c0.36738,1.59677 0.62599,3.21545 0.93765,4.81461c-0.00294,-0.00629 -0.00589,-0.01258 -0.00886,-0.01886c-0.68701,-1.45006 -1.0189,-2.9575 -1.41605,-4.68364c-0.33639,-1.46205 0.05447,-3.04093 -0.30124,-4.46886c-0.47523,-1.90773 -1.31266,-3.75641 -1.75476,-5.73678c-0.0067,-2.13059 0.46815,-4.90443 -0.02657,-6.96941c-0.25329,-1.05724 -1.00168,-2.13332 -1.34422,-3.2007c-0.38115,-1.18767 -0.88023,-2.49684 -1.31518,-3.8299c-0.26336,-0.01926 -0.5085,-0.03234 -0.72498,-0.03234c0,0 -0.25,0 -0.25,-0.25c0,-0.25 0.25,-0.25 0.25,-0.25c0.16872,0 0.3584,0.00907 0.5627,0.02335c-0.14609,-0.47005 -0.2814,-0.94152 -0.39803,-1.41018c-0.12052,0.11419 -0.28255,0.02755 -0.28255,0.02755l-0.05068,-0.02709c-1.2959,-0.69289 -1.91119,-2.32824 -1.91119,-3.71509c0,-1.82867 0.03847,-3.66271 -0.02914,-5.49031c-0.01014,-0.27407 0.03792,-1.59752 -0.21949,-1.75998c-0.43693,-0.27577 -2.29173,0.04353 -2.85903,0.04353c-3.49997,0 -6.99995,-0.00051 -10.49992,0.00065c-1.22248,0.00041 -3.27369,-0.38701 -4.41326,0.03221c-1.69936,0.62516 -3.36112,2.62063 -5.20057,2.73323c-4.17248,0.14091 -4.95507,3.12797 -6.51359,6.37385c-0.56544,2.97634 -2.70041,4.83566 -2.70041,7.99264c0,0 0,0.25 -0.25,0.25c-0.25,0 -0.25,-0.25 -0.25,-0.25c0,-3.23721 2.12503,-5.11963 2.72543,-8.14883c1.61253,-3.42773 2.62457,-6.55564 6.9708,-6.71734c1.67976,0.00094 3.47241,-2.12401 5.0457,-2.7028c1.21309,-0.44627 3.29251,-0.06253 4.58573,-0.06296c3.50002,-0.00117 7.00006,-0.00065 10.50008,-0.00065c0.66213,0 2.60899,-0.33273 3.14096,0.04354c0.47801,0.3381 0.41814,1.64532 0.43721,2.15431c0.0687,1.83371 0.02949,3.6741 0.02949,5.50892c0,1.24911 0.4742,2.6422 1.63943,3.27011c-0.19031,-0.85358 -0.30969,-1.69324 -0.30969,-2.49302c0,0 0,-0.25 0.25,-0.25c0.25,0 0.25,0.25 0.25,0.25c0,1.38609 0.37078,2.89798 0.84498,4.3915c1.14237,0.10301 2.52796,0.25778 3.31387,-0.04993c0.79996,-0.31321 0.40455,-1.16258 0.86825,-1.60252c0.45833,-0.43484 2.06957,-0.22549 2.66073,-0.23171c3.50039,-0.03682 7.00199,-0.01273 10.50257,-0.01273c1.38569,0 2.91728,0.78269 3.6747,1.91709c0.36172,0.54175 -0.31028,2.08755 0.04032,2.48809c0.34181,0.39051 0.75082,0.4162 0.91044,1.16124c0.14625,0.68264 -0.14181,1.2313 0.2819,1.82527c1.52446,2.24685 -0.25718,5.08096 0.67064,7.37254c0.43412,1.07224 0.89303,1.45476 0.931,2.79003c0.00766,3.50125 0.00215,7.00257 0.00215,10.50383c0,2.35028 0.02484,4.74315 -0.9104,6.86065c-0.53835,1.21888 -1.58339,1.48459 -1.86253,2.87724c-1.2724,0.77507 -2.51371,1.43317 -3.4237,2.61029c-0.37833,0.4894 -0.54137,1.39536 -1.02428,1.78361c-0.98946,0.79552 -2.2126,0.9404 -2.93016,2.13224c-0.19302,0.02067 -1.33801,-0.05834 -1.49057,0.04033c-0.26764,0.1731 -0.07144,1.17034 -0.25562,1.40638c-0.62814,0.80502 -1.90784,0.28789 -2.79127,0.25401c0.01753,0.23387 0.03172,0.4674 0.04233,0.70052c0.02639,3.50194 0.00823,7.00457 0.00823,10.5066c0,2.77231 1.00758,8.23899 -0.64971,10.45012c-0.45745,0.5741 -0.12649,1.11711 -0.26743,1.80059c-0.58408,2.83239 -1.80777,5.15533 -1.82151,8.14908c-0.00189,0.41284 -0.56132,2.93433 -1.00711,3.29968c-0.2505,0.2053 -1.3275,0.07516 -1.6573,0.07677c-1.83368,0.00896 -3.66752,0.00258 -5.50122,0.00258c-3.516,0 -6.16826,-1.87098 -9.22256,-3.99105c-1.93885,-1.3458 -2.29072,-2.19105 -2.74497,-3.70799c0,2.43222 -0.00001,4.86445 -0.00001,7.29668c0,3.87311 -0.30161,6.92733 -3.52984,9.32882c-1.16286,0.61749 -1.23621,1.21804 -2.0137,1.87569c-0.53544,0.45291 -5.76713,0.55205 -6.31246,0.12276c-0.24603,-0.19368 -0.35806,-1.25574 -0.43387,-1.57289c-1.17702,-2.56285 -0.4918,-4.725 -1.01352,-7.34599c-0.20512,-1.03048 -0.76324,-1.77944 -0.83798,-2.87709c-0.07402,-1.08714 -0.69314,-0.85052 -0.95114,-1.97794c-0.06608,-0.28876 0.13452,-1.19907 -0.0058,-1.42006c-0.36522,-0.5752 -1.43732,-0.7363 -1.82175,-1.33098c-0.4886,-0.75582 -0.04759,-3.22266 -0.04762,-4.13571c-0.00009,-2.56159 1.01219,-8.14795 -0.56403,-10.11619c-1.05287,-1.11461 -1.98599,-3.42386 -2.14887,-4.91468c-0.16326,-1.49426 0.41239,-3.51753 -0.213,-4.88242c-0.7679,-1.73096 -0.37736,-3.15467 -0.72812,-4.9213c-0.35701,-1.79811 -1.81222,-3.32388 -1.82763,-5.06949c-0.01468,-1.66727 -0.0076,-3.33486 -0.0076,-5.00218c0,-0.31416 0.20309,-1.63204 0.05003,-1.84997c-0.28815,-0.41027 -2.78294,-0.16249 -3.27615,-0.16543c-1.14256,-0.00062 -3.7373,0.37515 -4.44142,1.63701c-0.29976,0.53719 -0.31017,0.86702 -1.0987,1.06269c-1.05988,0.26301 -2.46757,0.04183 -3.55969,0.04348c-0.80934,0.00025 -2.96465,0.38817 -3.6379,-0.04098c-1.73976,-1.10897 -3.1084,-3.53997 -3.2428,-5.60438c-0.01173,-2.03905 -0.59986,-5.14843 0.00572,-7.0835c0.40426,-1.2918 0.90325,-1.64878 0.90339,-3.15597c0.05747,-0.81637 0.84586,-1.46215 1.44758,-1.87316c0.70879,-0.48413 0.05971,-1.76899 0.42151,-2.33107c0.80374,-1.24866 4.02761,-1.452 5.35337,-1.45252c0.23392,-0.00002 1.72827,0.16912 1.84088,0.05709c0.52858,-0.52586 1.27675,-2.17301 1.97447,-2.66274c1.33235,-0.93518 2.59211,-1.73328 3.83537,-2.97398c0.50943,-0.50838 1.18269,-1.33087 1.68874,-1.65965c0.89078,-0.57875 2.58875,0.28601 3.55043,-0.06435c1.52284,-0.5548 2.56287,-0.90545 4.33389,-0.92484c3.50014,-0.0383 7.00234,-0.00552 10.50271,-0.00552c0.7195,0 3.10411,-0.38828 3.65415,0.05318c0.45655,0.36643 -0.02858,1.22423 0.23015,1.51202c0.20349,0.22634 1.18943,-0.00594 1.46407,0.26496c0.31462,0.31033 0.03822,1.20682 0.29918,1.47372c0.55717,0.56985 1.42144,0.26424 2.06667,1.17538c0.43742,0.61768 1.3208,1.29245 1.62196,1.95684c0.88249,1.94682 0.19867,6.08894 0.10031,8.21385c-2.46379,1.88298 -4.64786,5.97515 -8.03753,5.97706c-2.22424,0.00029 -2.9284,1.03986 -4.84196,1.76438c-1.3359,0.5058 -3.66007,0.06548 -5.088,0.06553c-0.46268,0.00002 -2.55518,-0.2981 -2.85294,-0.04781c-1.66094,1.39611 -3.83031,2.80956 -5.83981,3.68427c-0.85111,0.02302 -1.70235,0.02111 -2.55374,0.02257l-0.28301,0.00048c0,0 -0.25,0.00043 -0.25042,-0.24957c-0.00043,-0.25 0.24957,-0.25043 0.24957,-0.25043l0.28301,-0.00048c0.81538,-0.00139 1.6307,-0.00516 2.44606,-0.01064c1.96027,-0.90108 3.90773,-2.44093 5.65421,-3.60053c0.57089,-0.37905 2.45477,-0.04783 3.14706,-0.04785c1.34994,-0.00005 3.65599,0.44608 4.91041,-0.03292c1.96335,-0.74971 2.71753,-1.79668 5.01949,-1.79698c3.39539,0.00108 4.93967,-4.14547 7.59462,-5.70895c-0.16038,-2.16033 0.77876,-5.80884 -0.11274,-7.77553c-0.28254,-0.6233 -1.15937,-1.28794 -1.57461,-1.87431c-0.65059,-0.91871 -1.36361,-0.44742 -2.01612,-1.11479c-0.29573,-0.30245 -0.04037,-1.21831 -0.2928,-1.4673c-0.26485,-0.26125 -1.18086,0.0514 -1.48478,-0.28666c-0.20868,-0.23212 0.05731,-1.28736 -0.16662,-1.45266c-0.42057,-0.31046 -2.74802,0.05318 -3.34584,0.05318c-3.49854,0 -6.99892,-0.03284 -10.49724,0.00549c-1.72319,0.01887 -2.69736,0.35881 -4.16821,0.89467c-0.88501,0.32242 -2.69185,-0.48328 -3.44849,0.01338c-0.46305,0.30395 -1.11395,1.10106 -1.60865,1.59474c-1.27346,1.27083 -2.48141,2.14205 -3.91008,3.03533c-0.42955,0.26857 -0.51092,1.3763 -0.91003,1.74214c-0.98182,0.89996 -1.77115,0.94809 -3.18368,0.94824c-1.16522,0.00046 -4.25346,0.1493 -4.93234,1.22203c-0.40593,0.64144 0.31151,1.79321 -0.54587,2.46394c-0.38827,0.30375 -1.31637,0.90289 -1.24437,1.47082c-0.00014,1.51025 -0.52227,2.0145 -0.92621,3.30526c-0.58422,1.86681 0.00631,4.94222 0.01679,6.91648c0.13488,2.0578 1.38435,4.05775 3.01846,5.20472c0.46877,0.32903 2.72881,-0.04148 3.3621,-0.04167c1.04791,-0.00158 2.42489,0.22308 3.43972,-0.02876c0.84687,-0.21016 0.63795,-0.73749 1.27559,-1.19396c1.46312,-1.04738 2.64068,-1.52141 4.38657,-1.52045c0.74795,0.00445 3.16187,-0.29897 3.67448,0.36536c0.19111,0.24768 0.05002,1.32587 0.05002,1.65004c0,1.8325 -0.00856,3.66533 0.00759,5.49777c0.01474,1.67647 1.46958,3.22137 1.81807,4.97652c0.34351,1.73014 -0.05257,3.13137 0.69474,4.81591c1.40726,3.25824 -0.4202,6.80629 2.28202,9.67164c1.70763,2.12876 0.68674,7.70683 0.68684,10.44439c0.00003,0.7799 -0.42578,3.25585 -0.03247,3.86427c0.37021,0.57268 1.43683,0.73377 1.82275,1.33254c0.32331,0.50162 1.00527,3.19905 1.03488,3.63394c0.07295,1.07133 0.62744,1.79827 0.82952,2.81344c0.5177,2.6008 -0.15463,4.74503 0.99575,7.28037c0.03873,0.15883 0.16754,1.26216 0.27054,1.34324c0.31226,0.24581 5.35735,0.17032 5.6783,-0.10995c0.7201,-0.62884 0.95609,-1.33026 2.07135,-1.91822c3.07958,-2.30519 3.29707,-5.19019 3.29707,-8.90623c0,-2.97611 0.00002,-5.95222 0.00001,-8.92833c-0.45382,-1.31745 -1.57598,-2.02456 -1.79887,-3.50883c-0.02668,-2.34002 -0.03085,-4.67974 -0.03087,-7.01989v-0.00001h-0.00001v-0.5c0,-0.13807 0.11193,-0.25 0.25,-0.25c0.13807,0 0.25,0.11193 0.25,0.25v0l0.00001,0.45546c0.86171,0.79952 0.54401,1.6512 0.88993,2.69567c0.73631,2.22322 0.93979,3.80756 0.9398,6.30592c0.00001,0.49681 0.00001,0.99362 0.00001,1.49043c0.83263,2.53531 0.58584,3.31352 3.03008,5.01014c3.0058,2.08641 5.53445,3.9018 8.93745,3.9018c1.66649,0 3.333,0.0019 4.99948,-0.00154c0.28191,-0.00058 1.6638,0.18276 1.84164,0.03585c0.3527,-0.29136 0.82279,-2.53995 0.82451,-2.91564c0.01393,-3.0349 1.2404,-5.37983 1.83181,-8.24776c0.16395,-0.79505 -0.1589,-1.27922 0.35703,-1.99949c1.55206,-2.07075 0.5498,-7.52801 0.5498,-10.15024c0,-3.49762 0.01767,-6.99581 -0.00806,-10.49335c-0.00994,-0.21759 -0.02308,-0.43548 -0.03918,-0.65363c-0.07097,0.02657 -0.135,0.06286 -0.19083,0.11101c-0.74085,0.63887 -1.01423,0.90278 -2.2035,0.96217l-0.04058,0.00203c0,0 -0.24968,0.01247 -0.26216,-0.23722zM111.01863,148.2021c0,-0.16008 -0.00001,-0.32014 -0.00001,-0.48022c-0.00001,-1.40911 0.41473,-3.5838 -0.05379,-4.91474c-0.28195,-0.80096 -0.89581,-1.82144 -1.27513,-2.81316c0.00256,1.91696 0.01129,3.83368 0.02845,5.75068c0.15685,1.02739 0.7956,1.68306 1.30048,2.45744zM131.40983,110.92134c-0.16513,-0.67283 -0.30797,-1.35244 -0.44111,-2.03562c0.28297,0.60733 0.38092,1.3072 0.44111,2.03562z" fill="#000000" stroke="#000000" stroke-width="2.5" stroke-linecap="butt"/><path d="M290.58364,27.54749l-6.40411,194.86785l99.7211,34.76515l10.0636,-226.88838z" fill="#feffa2" stroke="#000000" stroke-width="2.5" stroke-linecap="round"/><path d="M319.85956,83.35471l42.99901,52.14774l-63.1262,-21.04207z" fill="none" stroke="#000000" stroke-width="2.5" stroke-linecap="round"/><path d="M299.73237,113.5455l-1.82975,28.36105" fill="none" stroke="#000000" stroke-width="2.5" stroke-linecap="round"/><path d="M363.77344,137.33219l-1.82975,18.29745" fill="none" stroke="#000000" stroke-width="2.5" stroke-linecap="round"/><path d="M330.4124,150.1404c0,-2.76143 2.23858,-5 5,-5c2.76142,0 5,2.23857 5,5c0,0.84943 -0.21182,1.64939 -0.58552,2.34994c0.13731,0.02854 0.27643,0.05736 0.41763,0.08641c1.50313,0.30922 3.10703,-0.33208 4.60381,0.00657c0.6651,0.15048 1.16349,0.7696 1.82974,0.91487c1.48978,0.32483 3.08717,-0.33649 4.57437,0c0.6651,0.15048 1.17001,0.74244 1.82975,0.91487c2.35029,0.61431 4.17957,-0.05829 6.62133,0.98773l0.41046,-0.10629c0,0 1.25,0 1.25,1.25c0,1.25 -1.25,1.25 -1.25,1.25l-1.41929,-0.10629c-3.90384,-1.78445 -8.46599,-0.90963 -12.59098,-1.75689c-0.66796,-0.1372 -1.16723,-0.75342 -1.82975,-0.91487c-1.4719,-0.3587 -3.05792,0.29638 -4.54492,0.00658c-0.75425,-0.147 -1.42111,-0.29085 -2.06218,-0.41852c-0.67739,0.34276 -1.44335,0.53589 -2.25443,0.53589c-1.13786,0 -2.18694,-0.38009 -3.02721,-1.02022c-5.10146,-0.15677 -9.86154,-1.5281 -14.67673,-2.7718c-1.68056,-0.43407 -3.68555,-0.1343 -5.072,-1.17854c-0.56687,-0.42695 -0.48658,-1.37988 -0.97976,-1.89018c-1.37061,-1.41819 -3.91962,-1.13086 -5.45965,-1.87272c-0.78467,-0.37799 -1.22537,-1.26649 -1.97348,-1.71249c-2.24169,-1.3364 -5.41011,0.13003 -7.335,-2.05702c-0.56631,-0.64344 -0.1573,-1.70709 -0.23595,-2.56063c0,0 0,-1.25 1.25,-1.25c1.25,0 1.25,1.25 1.25,1.25c-0.47325,2.20406 4.57214,1.47117 6.32119,2.45272c0.69399,0.38947 1.05159,1.25673 1.76683,1.60565c1.91942,0.93637 4.41345,0.65717 6.18383,2.37672c0.46934,0.45587 0.35467,1.3418 0.84999,1.76931c0.86554,0.74703 3.2155,0.42974 4.07673,0.65121c4.03044,1.03639 8.0368,2.19994 12.25104,2.5773c-0.12364,-0.43517 -0.18982,-0.89451 -0.18982,-1.36932z" fill="#000000" stroke="none" stroke-width="0.5" stroke-linecap="butt"/><path d="M317.60418,99.82241c0,-2.76143 2.23858,-5 5,-5c2.76142,0 5,2.23857 5,5c0,2.76143 -2.23858,5 -5,5c-2.76142,0 -5,-2.23857 -5,-5z" fill="#000000" stroke="none" stroke-width="0.5" stroke-linecap="butt"/><path d="M309.37032,107.14139c0,-2.76143 2.23858,-5 5,-5c2.76142,0 5,2.23857 5,5c0,2.76143 -2.23858,5 -5,5c-2.76142,0 -5,-2.23857 -5,-5z" fill="#000000" stroke="none" stroke-width="0.5" stroke-linecap="butt"/><path d="M324.00829,112.63063c0,-2.76143 2.23858,-5 5,-5c2.76142,0 5,2.23857 5,5c0,2.76143 -2.23858,5 -5,5c-2.76142,0 -5,-2.23857 -5,-5z" fill="#000000" stroke="none" stroke-width="0.5" stroke-linecap="butt"/><path d="M341.39087,121.77935c0,-2.76143 2.23858,-5 5,-5c2.76142,0 5,2.23857 5,5c0,2.76143 -2.23858,5 -5,5c-2.76142,0 -5,-2.23857 -5,-5z" fill="#000000" stroke="none" stroke-width="0.5" stroke-linecap="butt"/><path d="M305.71083,138.24706c0,-2.76143 2.23858,-5 5,-5c2.76142,0 5,2.23857 5,5c0,2.76143 -2.23858,5 -5,5c-2.76142,0 -5,-2.23857 -5,-5z" fill="#000000" stroke="none" stroke-width="0.5" stroke-linecap="butt"/><path d="M322.17854,131.84295c0,-2.76143 2.23858,-5 5,-5c2.76142,0 5,2.23857 5,5c0,2.76143 -2.23858,5 -5,5c-2.76142,0 -5,-2.23857 -5,-5z" fill="#000000" stroke="none" stroke-width="0.5" stroke-linecap="butt"/><path d="M345.96523,140.07681c0,-2.76143 2.23858,-5 5,-5c2.76142,0 5,2.23857 5,5c0,2.76143 -2.23858,5 -5,5c-2.76142,0 -5,-2.23857 -5,-5z" fill="#000000" stroke="none" stroke-width="0.5" stroke-linecap="butt"/><path d="M301.13648,125.43884c0,-2.76143 2.23858,-5 5,-5c2.76142,0 5,2.23857 5,5c0,2.76143 -2.23858,5 -5,5c-2.76142,0 -5,-2.23857 -5,-5z" fill="#000000" stroke="none" stroke-width="0.5" stroke-linecap="butt"/></g></g></svg>