<svg version="1.1" xmlns="http://www.w3.org/2000/svg" xmlns:xlink="http://www.w3.org/1999/xlink" width="54.21708" height="74.63043" viewBox="0,0,54.21708,74.63043"><g transform="translate(-205.66689,-112.75607)"><g data-paper-data="{&quot;isPaintingLayer&quot;:true}" fill-rule="nonzero" stroke-linejoin="miter" stroke-miterlimit="10" stroke-dasharray="" stroke-dashoffset="0" style="mix-blend-mode: normal"><path d="M224.78477,186.8865v-14.88746h30.31726v14.88746z" fill="#757575" stroke="#000000" stroke-width="1" stroke-linecap="butt"/><path d="M232.83812,173.32372v-21.64029h14.35325v21.64029z" fill="#757575" stroke="#000000" stroke-width="1" stroke-linecap="butt"/><path d="M259.88397,138.48152c0,14.20777 -12.13691,25.72545 -27.10854,25.72545c-14.97163,0 -27.10854,-11.51768 -27.10854,-25.72545c0,-14.20777 12.13691,-25.72545 27.10854,-25.72545c14.97163,0 27.10854,11.51768 27.10854,25.72545z" fill="#757575" stroke="none" stroke-width="0" stroke-linecap="butt"/><path d="M231.82851,136.67937c0,2.29564 -1.78007,4.15663 -3.9759,4.15663c-2.19583,0 -3.9759,-1.86099 -3.9759,-4.15663c0,-2.29564 1.78007,-4.15663 3.9759,-4.15663c2.19583,0 3.9759,1.86099 3.9759,4.15663z" fill="#757575" stroke="#000000" stroke-width="1" stroke-linecap="butt"/><path d="M228.13544,132.42508l8.8938,-18.84956l11.28319,6.37168l-16.72566,16.19469" fill="none" stroke="#000000" stroke-width="0.5" stroke-linecap="round"/><path d="M230.7903,138.79677l22.30088,9.95575l-10.75221,10.75222l-13.80531,-18.71681l-13.40708,15.53098l-5.84071,-14.20354l14.86726,-3.58408" fill="none" stroke="#000000" stroke-width="0.5" stroke-linecap="round"/><path d="M223.7549,135.74367l-14.20354,-9.69027l8.89381,-8.09735l8.09735,14.46903" fill="none" stroke="#000000" stroke-width="0.5" stroke-linecap="round"/><path d="M211.4538,130.92087c0.17678,0.17678 0,0.35355 0,0.35355l-0.08591,0.06777c-1.04133,1.91631 -1.69927,4.20344 -1.69927,6.52536c0,0 0,0.25 -0.25,0.25c-0.25,0 -0.25,-0.25 -0.25,-0.25c0,-2.49092 0.84905,-4.64144 1.75206,-6.74897l0.17957,-0.19772c0,0 0.17678,-0.17678 0.35355,0z" fill="#000000" stroke="none" stroke-width="0.5" stroke-linecap="butt"/><path d="M214.31464,131.49588c0,0.25 -0.25,0.25 -0.25,0.25h-0.13274c-0.1136,-0.00223 -0.22719,-0.00446 -0.34079,-0.00669c-1.58696,0.84968 -1.40036,5.16841 -1.40036,6.79209c0,0 0,0.25 -0.25,0.25c-0.25,0 -0.25,-0.25 -0.25,-0.25c0,-1.90022 -0.19298,-6.33573 1.78548,-7.27871c0.15189,-0.00223 0.30378,-0.00446 0.45567,-0.00669h0.13274c0,0 0.25,0 0.25,0.25z" fill="#000000" stroke="none" stroke-width="0.5" stroke-linecap="butt"/><path d="M218.40329,132.44602c0.1118,0.22361 -0.1118,0.33541 -0.1118,0.33541l-0.26549,0.13274c-2.02839,1.00984 -1.89909,3.3913 -2.11997,5.37922c0,0 -0.02761,0.24847 -0.27608,0.22086c-0.24847,-0.02761 -0.22086,-0.27608 -0.22086,-0.27608c0.24351,-2.19162 0.16597,-4.65324 2.3933,-5.77122l0.26549,-0.13274c0,0 0.22361,-0.1118 0.33541,0.1118z" fill="#000000" stroke="none" stroke-width="0.5" stroke-linecap="butt"/><path d="M231.0403,118.0888c0,0.25 -0.25,0.25 -0.25,0.25l-0.24455,-0.02639c-2.97309,-1.48797 -4.43317,0.80673 -7.32183,0.82285c0,0 -0.25,0 -0.25,-0.25c0,-0.25 0.25,-0.25 0.25,-0.25c2.98106,0.01943 4.40873,-2.33699 7.54543,-0.77007l0.02094,-0.02639c0,0 0.25,0 0.25,0.25z" fill="#000000" stroke="none" stroke-width="0.5" stroke-linecap="butt"/><path d="M230.24333,119.83049c-0.01603,0.24949 -0.26551,0.23346 -0.26551,0.23346l-0.22325,-0.01843c-3.23249,-0.82184 -4.85079,0.82461 -6.88483,2.86607c0,0 -0.17678,0.17678 -0.35355,0c-0.17678,-0.17678 0,-0.35355 0,-0.35355c2.17031,-2.1617 3.95325,-3.83642 7.35965,-2.99759l0.13404,0.00453c0,0 0.24949,0.01603 0.23346,0.26551z" fill="#000000" stroke="none" stroke-width="0.5" stroke-linecap="butt"/><path d="M229.84561,122.86756c0,0.25 -0.25,0.25 -0.25,0.25h-0.13274c-2.5938,-0.02338 -3.3966,0.79165 -4.98494,2.69766c0,0 -0.16005,0.19206 -0.3521,0.03201c-0.19206,-0.16005 -0.03201,-0.3521 -0.03201,-0.3521c1.68225,-2.0187 2.65398,-2.85757 5.36905,-2.87756h0.13274c0,0 0.25,0 0.25,0.25z" fill="#000000" stroke="none" stroke-width="0.5" stroke-linecap="butt"/><path d="M253.63846,143.19741c-0.02011,-0.24919 0.22908,-0.2693 0.22908,-0.2693l0.02349,0.03427c0.81564,-0.57472 0.938,-1.46775 0.94454,-2.3999c-0.94809,-2.84427 -1.40746,-6.26529 -2.13986,-9.22601c-0.76351,-3.08993 -1.06607,-4.40517 -3.83137,-5.72317c0,0 -0.22361,-0.1118 -0.1118,-0.33541c0.1118,-0.22361 0.33541,-0.1118 0.33541,-0.1118c2.84437,1.52292 3.27702,2.75498 4.09313,6.05032c0.73619,2.97605 1.19392,6.40364 2.14803,9.26599c0.00682,1.14026 -0.17243,2.17177 -1.14585,2.8857l-0.2755,0.0584c0,0 -0.24919,0.02011 -0.2693,-0.22908z" fill="#000000" stroke="none" stroke-width="0.5" stroke-linecap="butt"/><path d="M249.78809,144.77022c0,-0.19965 0.15944,-0.23986 0.22366,-0.24796c0.23729,-0.53256 0.30847,-1.08264 0.30731,-1.6724c0,-3.14131 -0.73479,-6.3806 -1.37707,-9.44544c-0.51347,-2.49303 -1.55214,-5.54164 -3.92722,-6.72918c0,0 -0.22361,-0.1118 -0.1118,-0.33541c0.1118,-0.22361 0.33541,-0.1118 0.33541,-0.1118c2.52336,1.26168 3.64676,4.42468 4.19332,7.07548c0.62787,3.10864 1.38736,6.36417 1.38736,9.54636c-0.0013,0.7208 -0.10188,1.38344 -0.42462,2.03216l-0.35635,0.1382c0,0 -0.25,0 -0.25,-0.25z" fill="#000000" stroke="none" stroke-width="0.5" stroke-linecap="butt"/><path d="M245.87901,144.81425c-0.17678,-0.17678 0,-0.35355 0,-0.35355l0.05952,0.04403c0,-2.55205 -0.51586,-5.59789 -1.30201,-7.98751c-1.04196,-1.55173 -0.82341,-6.31731 -3.49224,-6.23152c0,0 -0.25,0 -0.25,-0.25c0,-0.25 0.25,-0.25 0.25,-0.25c3.18715,0.06601 2.68052,4.60768 3.94139,6.51184c0.82498,2.44526 1.35285,5.59504 1.35285,8.20718l-0.20597,0.30952c0,0 -0.17678,0.17678 -0.35355,0z" fill="#000000" stroke="none" stroke-width="0.5" stroke-linecap="butt"/><path d="M240.19959,157.64632c0,0.25 -0.25,0.25 -0.25,0.25h-0.39823c-0.9971,0 -1.93888,0.09451 -2.92681,0.15968c-3.22635,0.17699 -6.52354,1.47573 -9.87399,1.42656c-2.32598,-1.1532 -5.08748,-1.60706 -7.48799,-2.80732c0,0 -0.22361,-0.1118 -0.1118,-0.33541c0.1118,-0.22361 0.33541,-0.1118 0.33541,-0.1118c2.36053,1.18026 5.1019,1.61931 7.37926,2.76791c3.30182,-0.0648 6.53621,-1.20338 9.72657,-1.43887c0.99732,-0.0643 1.95271,-0.16074 2.95936,-0.16074h0.39823c0,0 0.25,0 0.25,0.25z" fill="#000000" stroke="none" stroke-width="0.5" stroke-linecap="butt"/><path d="M236.40955,154.41645c0.17678,0.17678 0,0.35355 0,0.35355l-0.30031,0.2058c-2.75377,0.08843 -5.32658,1.2266 -8.17778,1.19063c-2.86786,-0.19242 -5.4199,-1.37014 -8.10518,-2.26523c0,0 -0.23717,-0.07906 -0.15811,-0.31623c0.07906,-0.23717 0.31623,-0.15811 0.31623,-0.15811c2.63479,0.87826 5.15119,2.05887 7.96657,2.23995c2.84464,0.03443 5.38532,-1.0781 8.13985,-1.19067l-0.03483,-0.05969c0,0 0.17678,-0.17678 0.35355,0z" fill="#000000" stroke="none" stroke-width="0.5" stroke-linecap="butt"/><path d="M234.19975,151.69381c0.1118,0.22361 -0.1118,0.33541 -0.1118,0.33541l-0.31985,0.15245c-0.72253,0 -1.35395,0.41296 -2.14129,0.40169c-1.90246,0.63412 -6.59135,-0.22805 -8.04868,-1.66292c0,0 -0.17678,-0.17678 0,-0.35355c0.17678,-0.17678 0.35355,0 0.35355,0c1.31486,1.34042 5.88237,2.10051 7.61504,1.52293c0.76004,-0.00803 1.4035,-0.39477 2.1065,-0.39477l0.21112,-0.11304c0,0 0.22361,-0.1118 0.33541,0.1118z" fill="#000000" stroke="none" stroke-width="0.5" stroke-linecap="butt"/></g></g></svg>