<svg version="1.1" xmlns="http://www.w3.org/2000/svg" xmlns:xlink="http://www.w3.org/1999/xlink" width="43.28184" height="50.70237" viewBox="0,0,43.28184,50.70237"><g transform="translate(-218.38747,-154.3984)"><g data-paper-data="{&quot;isPaintingLayer&quot;:true}" fill-rule="nonzero" stroke-linejoin="miter" stroke-miterlimit="10" stroke-dasharray="" stroke-dashoffset="0" style="mix-blend-mode: normal"><path d="M224.44679,205.10077v-34.0775h31.75857v34.0775z" fill="#585858" stroke="#000000" stroke-width="0" stroke-linecap="butt"/><path d="M226.12453,178.28298v-5.5068h8.87206v5.5068z" fill="#c0c0c0" stroke="none" stroke-width="0" stroke-linecap="butt"/><path d="M235.96538,178.33397v-5.5068h8.87206v5.5068z" fill="#c0c0c0" stroke="none" stroke-width="0" stroke-linecap="butt"/><path d="M245.80623,178.38496v-5.5068h8.87206v5.5068z" fill="#c0c0c0" stroke="none" stroke-width="0" stroke-linecap="butt"/><path d="M226.17552,185.0645v-5.5068h8.87206v5.5068z" fill="#c0c0c0" stroke="none" stroke-width="0" stroke-linecap="butt"/><path d="M236.01637,185.11549v-5.5068h8.87206v5.5068z" fill="#c0c0c0" stroke="none" stroke-width="0" stroke-linecap="butt"/><path d="M245.85722,185.16648v-5.5068h8.87206v5.5068z" fill="#c0c0c0" stroke="none" stroke-width="0" stroke-linecap="butt"/><path d="M226.17552,191.4891v-5.5068h8.87206v5.5068z" fill="#c0c0c0" stroke="none" stroke-width="0" stroke-linecap="butt"/><path d="M236.01637,191.54009v-5.5068h8.87206v5.5068z" fill="#c0c0c0" stroke="none" stroke-width="0" stroke-linecap="butt"/><path d="M245.85722,191.59108v-5.5068h8.87206v5.5068z" fill="#c0c0c0" stroke="none" stroke-width="0" stroke-linecap="butt"/><path d="M226.22651,198.27062v-5.5068h8.87206v5.5068z" fill="#c0c0c0" stroke="none" stroke-width="0" stroke-linecap="butt"/><path d="M236.06736,198.32161v-5.5068h8.87206v5.5068z" fill="#c0c0c0" stroke="none" stroke-width="0" stroke-linecap="butt"/><path d="M245.90821,198.3726v-5.5068h8.87206v5.5068z" fill="#c0c0c0" stroke="none" stroke-width="0" stroke-linecap="butt"/><path d="M226.83952,203.10374v-2.7534h12.8492v2.7534z" fill="#ff0000" stroke="none" stroke-width="0" stroke-linecap="butt"/><path d="M240.96344,203.15473v-2.7534h12.8492v2.7534z" fill="#00ff15" stroke="none" stroke-width="0" stroke-linecap="butt"/><path d="M234.95893,171.05696v-7.86949h0.89937v7.86949z" fill="#585858" stroke="none" stroke-width="0" stroke-linecap="butt"/><path d="M244.92694,171.01949v-7.86949h0.89937v7.86949z" fill="#585858" stroke="none" stroke-width="0" stroke-linecap="butt"/><path d="M234.92818,164.01226v-0.85283h10.68546v0.85283z" fill="#585858" stroke="none" stroke-width="0" stroke-linecap="butt"/><path d="M261.1381,167.58209c0,0 -1.1676,-3.78778 -4.29671,-6.38517c-2.44328,-2.02809 -5.9942,-3.65072 -7.66633,-4.61146c-2.51084,-1.44263 -8.6919,-1.68624 -8.6919,-1.68624c0,0 -6.251,0.5307 -8.47104,1.7993c-0.48407,0.27661 -1.34889,0.39159 -2.13105,0.73073c-1.59289,0.69066 -3.41321,1.74072 -4.96994,2.98561c-3.88952,3.11039 -5.98884,7.62018 -5.98884,7.62018c0,0 0.29247,0.93965 1.26713,1.45168c1.0679,0.56101 2.86394,0.69948 3.80324,0.71451c0.93118,0.0149 2.83881,0.02208 4.11092,-0.45074c1.40996,-0.52405 2.14269,-1.53427 2.14269,-1.53427c0,0 1.37711,-2.78666 2.73407,-3.50215c0.81792,-0.43127 2.0477,-1.29919 3.4555,-1.62579c1.73227,-0.40187 3.77554,-0.12639 3.77554,-0.12639c0,0 4.02764,-0.19703 5.52029,0.62748c1.6602,0.91707 3.99185,4.62685 3.99185,4.62685c0,0 2.6757,1.57763 4.25503,1.48989c1.09132,-0.06063 3.54674,0.35621 5.1204,-0.18222c1.43122,-0.4897 2.03914,-1.94181 2.03914,-1.94181z" fill="#cacaca" stroke="#676767" stroke-width="1" stroke-linecap="round"/><path d="M230.33687,168.08035c0,1.0757 -2.5958,1.94772 -5.79788,1.94772c-3.20208,0 -5.79788,-0.87203 -5.79788,-1.94772c0,-1.0757 2.5958,-1.94773 5.79788,-1.94773c3.20208,0 5.79788,0.87203 5.79788,1.94773z" fill="#676767" stroke="none" stroke-width="0" stroke-linecap="butt"/><path d="M261.25889,167.83877c0,1.0757 -2.5958,1.94772 -5.79788,1.94772c-3.20208,0 -5.79788,-0.87203 -5.79788,-1.94772c0,-1.0757 2.5958,-1.94773 5.79788,-1.94773c3.20208,0 5.79788,0.87203 5.79788,1.94773z" fill="#676767" stroke="none" stroke-width="0" stroke-linecap="butt"/></g></g></svg>