<svg version="1.1" xmlns="http://www.w3.org/2000/svg" xmlns:xlink="http://www.w3.org/1999/xlink" width="582.64747" height="429.33335" viewBox="0,0,582.64747,429.33335"><g transform="translate(-4.37773,29.33333)"><g data-paper-data="{&quot;isPaintingLayer&quot;:true}" fill-rule="nonzero" stroke-linejoin="miter" stroke-miterlimit="10" stroke-dasharray="" stroke-dashoffset="0" style="mix-blend-mode: normal"><path d="M379.87502,306.75002l106.5,-316.5l99.60326,30.22102l-22.82608,368.85507l-189.27718,1.42392l8.25,-86.25c0,0 -146.76763,-13.19853 -180.70499,-16.25045c-13.30995,-1.19694 -27.79501,-2.49955 -27.79501,-2.49955l-102.75,113.25" fill="none" stroke="#000000" stroke-width="2" stroke-linecap="round"/><path d="M140.45836,-28.33332l33.16666,314.16667" fill="none" stroke="#000000" stroke-width="2" stroke-linecap="round"/><path d="M404.32883,38.02349l-56.73913,209.34783l-112.17391,-6.52174l-18.26087,-191.73913z" fill="none" stroke="#000000" stroke-width="2" stroke-linecap="round"/><path d="M246.50274,115.6322l-0.65217,-52.82609" fill="none" stroke="#000000" stroke-width="2" stroke-linecap="round"/><path d="M320.19838,54.32785l-2.6087,61.95653" fill="none" stroke="#000000" stroke-width="2" stroke-linecap="round"/><path d="M347.5897,77.80611l-1.95652,34.56522" fill="none" stroke="#000000" stroke-width="2" stroke-linecap="round"/><path d="M245.19839,149.54522l-1.30435,67.82609" fill="none" stroke="#000000" stroke-width="2" stroke-linecap="round"/><path d="M263.45925,220.63219l3.91304,-69.13043" fill="none" stroke="#000000" stroke-width="2" stroke-linecap="round"/><path d="M307.80708,156.71915l-7.82609,67.17391" fill="none" stroke="#000000" stroke-width="2" stroke-linecap="round"/><path d="M309.76361,221.93655l36.52173,1.95652" fill="none" stroke="#000000" stroke-width="2" stroke-linecap="round"/><path d="M296.06793,42.58872l-10.43478,200.2174" fill="none" stroke="#000000" stroke-width="2" stroke-linecap="round"/><path d="M225.63317,138.45827l149.34783,1.30435" fill="none" stroke="#000000" stroke-width="2" stroke-linecap="round"/><path d="M450.63318,192.58872l42.3913,-76.95652l53.47826,24.13043l-59.34782,85.43479z" fill="#ffffff" stroke="#000000" stroke-width="2" stroke-linecap="round"/><path d="M486.50274,202.37133l-26.08695,-15" fill="none" stroke="#000000" stroke-width="2" stroke-linecap="round"/><path d="M464.32883,176.28437l31.30435,15" fill="none" stroke="#000000" stroke-width="2" stroke-linecap="round"/><path d="M470.85057,165.19742l12.3913,10.43478" fill="none" stroke="#000000" stroke-width="2" stroke-linecap="round"/><path d="M509.32883,172.37133l-32.6087,-18.26087" fill="none" stroke="#000000" stroke-width="2" stroke-linecap="round"/><path d="M482.5897,140.41481l38.47827,22.82609" fill="none" stroke="#000000" stroke-width="2" stroke-linecap="round"/><path d="M530.1984,150.84957l-41.73914,-20.21739" fill="none" stroke="#000000" stroke-width="2" stroke-linecap="round"/><path d="M83.80437,39.98819l48.91305,191.08696l-75.65217,58.69565l-51.52174,-214.56522z" fill="#989898" stroke="#000000" stroke-width="2" stroke-linecap="round"/><path d="M54.45654,137.58695l-15,-7.82609l2.6087,-20.21739l11.73913,-11.73913l16.95652,-1.30435l-11.73913,-30l14.34783,-4.56521l18.26087,60z" fill="#ffffff" stroke="#000000" stroke-width="2" stroke-linecap="round"/><path d="M72.71741,114.76089l-15.65217,14.34782l-9.78261,-5.86956l3.91305,-11.73913l9.13043,-9.78261z" fill="#7dd9ff" stroke="#000000" stroke-width="2" stroke-linecap="round"/><path d="M91.63046,121.9348l8.47826,28.04347l-35.21739,11.73914l-9.13043,-25.43479z" fill="#ffffff" stroke="#000000" stroke-width="2" stroke-linecap="round"/><path d="M66.41104,215.84641c0,0 0.38721,-7.9046 3.89721,-14.65579c2.35989,-4.53905 7.26963,-8.1773 10.14353,-9.96759c3.15055,-1.96265 9.67988,-3.70419 15.67473,-3.18933c5.13798,0.44126 10.06714,3.03011 10.06714,3.03011" fill="none" stroke="#000000" stroke-width="2" stroke-linecap="round"/><path d="M88.87174,215.64263c0,-2.34721 1.90279,-4.25 4.25,-4.25c2.34721,0 4.25,1.90279 4.25,4.25c0,2.34721 -1.90279,4.25 -4.25,4.25c-2.34721,0 -4.25,-1.90279 -4.25,-4.25z" fill="#000000" stroke="none" stroke-width="0.5" stroke-linecap="butt"/><path d="M71.43301,219.10473c0,0 0.34033,-6.9476 3.42538,-12.88144c2.07418,-3.98952 6.38952,-7.1873 8.91548,-8.76084c2.76913,-1.72503 8.50796,-3.25573 13.77702,-2.80321c4.51593,0.38784 8.84833,2.66326 8.84833,2.66326" fill="none" stroke="#000000" stroke-width="2" stroke-linecap="round"/><path d="M77.48605,221.02251c0,0 0.2682,-5.47514 2.69942,-10.15139c1.63458,-3.14399 5.03534,-5.66403 7.02595,-6.90409c2.18224,-1.35943 6.7048,-2.56572 10.85715,-2.2091c3.55884,0.30564 6.97304,2.09882 6.97304,2.09882" fill="none" stroke="#000000" stroke-width="2" stroke-linecap="round"/></g></g></svg>