<svg version="1.1" xmlns="http://www.w3.org/2000/svg" xmlns:xlink="http://www.w3.org/1999/xlink" width="525.01151" height="308.90346" viewBox="0,0,525.01151,308.90346"><g transform="translate(23.25612,6.45221)"><g data-paper-data="{&quot;isPaintingLayer&quot;:true}" fill="none" fill-rule="nonzero" stroke="#000000" stroke-linejoin="miter" stroke-miterlimit="10" stroke-dasharray="" stroke-dashoffset="0" style="mix-blend-mode: normal"><path d="M121.81592,-3.95145v180.84042l-144.07204,124.56228" stroke-width="2" stroke-linecap="round"/><path d="M410.71037,-5.45221l-4.50225,178.5893l-285.89295,3.75188" stroke-width="2" stroke-linecap="round"/><path d="M406.95849,171.63634l93.7969,93.7969" stroke-width="2" stroke-linecap="round"/><path d="M139.07455,137.11909l-102.8014,63.78189l-38.26914,-3.75188l122.31116,-62.28114z" stroke-width="2" stroke-linecap="round"/><path d="M35.52277,200.90097l-1.50075,15.00751l-36.01801,2.25113l0.75038,-22.51126" stroke-width="2" stroke-linecap="round"/><path d="M138.32418,137.86945l-2.25113,12.00601l-102.80141,65.28264" stroke-width="2" stroke-linecap="round"/><path d="M16.76339,42.57181l93.04653,-18.009" stroke-width="2" stroke-linecap="round"/><path d="M32.52126,80.84095h12.00601l-6.75337,9.0045l-14.25713,-6.003l8.25412,-3.0015l-3.75187,-61.53077" stroke-width="2" stroke-linecap="round"/><path d="M64.7874,75.58832l11.25563,0.75038l4.50225,3.75187l0.75037,6.003l-22.51125,3.75187l-1.50075,-6.75337l1.50075,-6.75338l4.50225,-3.0015l-3.75187,-55.52777" stroke-width="2" stroke-linecap="round"/><path d="M26.51827,189.64535l-1.50075,-25.51276l20.26013,-5.25262l-1.50075,30.76538z" stroke-width="2" stroke-linecap="round"/><path d="M33.27164,161.88146l-0.75038,-10.50525l9.00451,2.25113v6.75338" stroke-width="2" stroke-linecap="round"/><path d="M65.53777,166.38371l-1.50075,-22.51126l24.76238,-0.75037l-2.25113,18.00901z" stroke-width="2" stroke-linecap="round"/><path d="M72.29115,143.12208l0.75038,-17.25863l12.006,2.25113l-5.25263,20.26013" stroke-width="2" stroke-linecap="round"/><path d="M103.1597,149.31109v-16.48352l14.07582,-3.51896l0.92604,15.74269z" stroke-width="2" stroke-linecap="round"/><path d="M107.60469,131.71633l-7.96394,-5.74145l16.29831,-3.14853l-4.81541,7.40832" stroke-width="2" stroke-linecap="round"/><path d="M109.76288,65.36162l-19.05921,7.29927l-5.67721,-61.23276" stroke-width="2" stroke-linecap="round"/><path d="M216.73778,173.78851l3.94945,-114.53397l91.62717,-0.78988l-1.57977,113.74408" stroke-width="2" stroke-linecap="round"/><path d="M222.0654,174.70793l4.39132,-94.77921l15.73554,-13.53989l48.67041,-0.36594l12.808,12.07612l0.73189,95.5111" stroke-width="2" stroke-linecap="round"/><path d="M422.01943,135.3176l10.43023,-73.02565l38.62818,19.66308l-10.43023,73.02565z" stroke-width="2" stroke-linecap="butt"/><path d="M463.79712,113.48163c-2.45531,13.65112 -11.991,23.36042 -21.29858,21.68635c-9.30758,-1.67407 -14.86245,-14.09759 -12.40714,-27.7487c2.45531,-13.65112 11.99101,-23.36043 21.29859,-21.68636c9.30758,1.67407 14.86244,14.09759 12.40713,27.74871z" stroke-width="2" stroke-linecap="butt"/><path d="M459.88492,113.41005c-2.84924,11.63951 -10.95274,19.82315 -18.09966,18.27867c-7.14693,-1.54448 -10.63088,-12.2322 -7.78164,-23.8717c2.84924,-11.6395 10.95273,-19.82315 18.09966,-18.27867c7.14693,1.54448 10.63089,12.2322 7.78165,23.8717z" stroke-width="2" stroke-linecap="butt"/><path d="M447.79313,99.50313c-0.45547,1.74278 -1.95494,2.86021 -3.34917,2.49583c-1.39423,-0.36437 -2.15524,-2.07256 -1.69978,-3.81534c0.45547,-1.74278 1.95494,-2.86021 3.34917,-2.49584c1.39423,0.36437 2.15524,2.07256 1.69978,3.81535z" stroke-width="0.5" stroke-linecap="butt"/><path d="M454.78132,104.68388c-0.45547,1.74278 -1.95494,2.86021 -3.34917,2.49583c-1.39423,-0.36437 -2.15525,-2.07256 -1.69978,-3.81534c0.45547,-1.74278 1.95494,-2.86021 3.34917,-2.49584c1.39423,0.36437 2.15524,2.07256 1.69978,3.81535z" stroke-width="0.5" stroke-linecap="butt"/><path d="M442.79132,106.06898c-0.45547,1.74278 -1.95494,2.86021 -3.34917,2.49583c-1.39423,-0.36437 -2.15525,-2.07256 -1.69978,-3.81534c0.45547,-1.74278 1.95494,-2.86021 3.34917,-2.49584c1.39423,0.36437 2.15525,2.07256 1.69978,3.81535z" stroke-width="0.5" stroke-linecap="butt"/><path d="M447.73228,115.34781c-0.45547,1.74278 -1.95494,2.86021 -3.34917,2.49583c-1.39423,-0.36437 -2.15525,-2.07256 -1.69978,-3.81534c0.45547,-1.74278 1.95494,-2.86021 3.34917,-2.49584c1.39423,0.36437 2.15524,2.07256 1.69978,3.81535z" stroke-width="0.5" stroke-linecap="butt"/><path d="M454.72047,120.52856c-0.45547,1.74278 -1.95494,2.86021 -3.34917,2.49583c-1.39423,-0.36437 -2.15524,-2.07256 -1.69978,-3.81534c0.45547,-1.74278 1.95494,-2.86021 3.34917,-2.49584c1.39423,0.36437 2.15525,2.07256 1.69978,3.81535z" stroke-width="0.5" stroke-linecap="butt"/><path d="M442.73047,121.91366c-0.45547,1.74278 -1.95494,2.86021 -3.34917,2.49584c-1.39423,-0.36437 -2.15524,-2.07256 -1.69978,-3.81535c0.45547,-1.74278 1.95494,-2.86021 3.34917,-2.49584c1.39423,0.36437 2.15525,2.07256 1.69978,3.81535z" stroke-width="0.5" stroke-linecap="butt"/><path d="M297.3065,118.49625c0,2.61746 -2.12187,4.73934 -4.73934,4.73934c-2.61746,0 -4.73934,-2.12187 -4.73934,-4.73934c0,-2.61746 2.12187,-4.73934 4.73934,-4.73934c2.61746,0 4.73934,2.12187 4.73934,4.73934z" stroke-width="2" stroke-linecap="butt"/></g></g></svg>