<svg version="1.1" xmlns="http://www.w3.org/2000/svg" xmlns:xlink="http://www.w3.org/1999/xlink" width="54.21708" height="74.63043" viewBox="0,0,54.21708,74.63043"><g transform="translate(-205.66689,-112.75607)"><g data-paper-data="{&quot;isPaintingLayer&quot;:true}" fill-rule="nonzero" stroke-linejoin="miter" stroke-miterlimit="10" stroke-dasharray="" stroke-dashoffset="0" style="mix-blend-mode: normal"><path d="M224.78477,186.8865v-14.88746h30.31726v14.88746z" fill="#757575" stroke="#000000" stroke-width="1" stroke-linecap="butt"/><path d="M232.83812,173.32372v-21.64029h14.35325v21.64029z" fill="#757575" stroke="#000000" stroke-width="1" stroke-linecap="butt"/><path d="M259.88397,138.48152c0,14.20777 -12.13691,25.72545 -27.10854,25.72545c-14.97163,0 -27.10854,-11.51768 -27.10854,-25.72545c0,-14.20777 12.13691,-25.72545 27.10854,-25.72545c14.97163,0 27.10854,11.51768 27.10854,25.72545z" fill="#757575" stroke="none" stroke-width="0" stroke-linecap="butt"/><path d="M231.82851,136.67937c0,2.29564 -1.78007,4.15663 -3.9759,4.15663c-2.19583,0 -3.9759,-1.86099 -3.9759,-4.15663c0,-2.29564 1.78007,-4.15663 3.9759,-4.15663c2.19583,0 3.9759,1.86099 3.9759,4.15663z" fill="#757575" stroke="#000000" stroke-width="1" stroke-linecap="butt"/><path d="M226.27703,140.25694l-10.35398,16.72566l15.39823,2.25664l-2.65487,-18.31858" fill="none" stroke="#000000" stroke-width="0.5" stroke-linecap="round"/><path d="M223.7549,136.40738l-16.06195,0.79646l2.78761,-13.00885l14.46903,9.42478" fill="none" stroke="#000000" stroke-width="0.5" stroke-linecap="round"/><path d="M228.00269,132.55783l4.11504,-17.25664l11.9469,3.84956l-12.61062,16.99115l22.69912,-0.9292l-5.84071,14.86726l-17.12389,-11.28319" fill="none" stroke="#000000" stroke-width="0.5" stroke-linecap="round"/><path d="M209.50733,139.81468c0.17678,-0.17678 0.35355,0 0.35355,0l0.16498,0.17236c0.5974,0.91034 1.09995,1.97609 1.10293,3.08849c0,1.54999 1.48824,6.55409 3.46681,6.48894c0,0 0.25,0 0.25,0.25c0,0.25 -0.25,0.25 -0.25,0.25c-2.35405,-0.05365 -3.96681,-5.06567 -3.96681,-6.98894c0.00313,-1.0126 -0.47914,-1.98853 -1.02096,-2.81416l-0.10051,-0.09313c0,0 -0.17678,-0.17678 0,-0.35355z" fill="#000000" stroke="none" stroke-width="0.5" stroke-linecap="butt"/><path d="M213.37998,138.04218c0.22361,0.1118 0.1118,0.33541 0.1118,0.33541l-0.13274,0.26549c-0.627,1.17106 0.80838,4.7267 1.34714,5.80421c0.01298,1.55886 1.15501,4.71752 2.41749,5.55739c0,0 0.20801,0.13868 0.06934,0.34669c-0.13868,0.20801 -0.34669,0.06934 -0.34669,0.06934c-1.32883,-0.88789 -2.64179,-4.20383 -2.62676,-5.85854c-0.6388,-1.2776 -1.96917,-4.75492 -1.30773,-6.14269l0.13274,-0.26549c0,0 0.1118,-0.22361 0.33541,-0.1118z" fill="#000000" stroke="none" stroke-width="0.5" stroke-linecap="butt"/><path d="M216.53407,138.93103c0.13122,0.21279 -0.08157,0.34401 -0.08157,0.34401l-0.17841,0.07277c0.06086,0.72592 -0.16865,1.6592 0.15771,2.31166c0.03408,2.11522 0.59481,5.57718 3.13595,6.18679c0,0 0.24254,0.06063 0.1819,0.30317c-0.06063,0.24254 -0.30317,0.1819 -0.30317,0.1819c-2.68124,-0.69291 -3.54249,-4.19887 -3.50121,-6.55658c-0.35767,-0.71562 -0.1478,-1.88554 -0.10777,-2.67064l0.35256,-0.25466c0,0 0.21279,-0.13122 0.34401,0.08157z" fill="#000000" stroke="none" stroke-width="0.5" stroke-linecap="butt"/><path d="M230.24384,117.69057c0,0.25 -0.25,0.25 -0.25,0.25h-0.13274c-2.85458,0 -5.34898,1.79545 -7.61488,3.40705c-1.54345,1.07513 -3.27118,2.10365 -4.93798,2.9622c-0.5981,0.30808 -1.58115,0.95452 -1.76793,0.01792c0,0 0,-0.25 0.25,-0.25c0.25,0 0.25,0.25 0.25,0.25c-0.51419,0.40544 1.17713,-0.57464 1.75457,-0.8834c1.39265,-0.74466 2.85643,-1.59511 4.16354,-2.50559c2.35672,-1.67623 4.93418,-3.49818 7.90268,-3.49818h0.13274c0,0 0.25,0 0.25,0.25z" fill="#000000" stroke="none" stroke-width="0.5" stroke-linecap="butt"/><path d="M228.11995,120.34544c0,0.25 -0.25,0.25 -0.25,0.25h-0.39823c-1.3369,0 -2.67444,-0.01359 -3.67284,0.98878c-2.08146,2.07859 -3.76409,3.11035 -4.85414,6.01714c0,0 -0.08778,0.23408 -0.32186,0.1463c-0.23408,-0.08778 -0.1463,-0.32186 -0.1463,-0.32186c1.11233,-2.96621 2.85373,-4.08303 4.96887,-6.19525c1.10932,-1.10529 2.543,-1.13511 4.02627,-1.13511h0.39823c0,0 0.25,0 0.25,0.25z" fill="#000000" stroke="none" stroke-width="0.5" stroke-linecap="butt"/><path d="M225.29912,116.50411c0.12452,0.21678 -0.09227,0.3413 -0.09227,0.3413l-0.32566,0.18366c-1.0448,0.23164 -2.2631,0.36416 -3.11833,1.06805c-2.40236,1.11845 -4.84411,2.78803 -6.72498,4.68173c0,0 -0.17678,0.17678 -0.35355,0c-0.17678,-0.17678 0,-0.35355 0,-0.35355c1.92126,-1.90963 4.36814,-3.62213 6.81267,-4.75164c0.88149,-0.72074 2.12794,-0.8829 3.20446,-1.11117l0.25638,-0.15065c0,0 0.21678,-0.12452 0.3413,0.09227z" fill="#000000" stroke="none" stroke-width="0.5" stroke-linecap="butt"/><path d="M251.21184,132.51595c-0.22361,0.1118 -0.33541,-0.1118 -0.33541,-0.1118l-0.15215,-0.31858c-0.02908,-1.54174 -0.9646,-2.52177 -1.57933,-3.82448c-1.31022,-2.77856 -2.229,-4.68929 -4.69934,-6.52095c0,0 -0.2,-0.15 -0.05,-0.35c0.15,-0.2 0.35,-0.05 0.35,-0.05c2.52544,1.91946 3.49787,3.84024 4.85154,6.70759c0.62034,1.31496 1.61134,2.35616 1.61315,3.92043l0.11334,0.21239c0,0 0.1118,0.22361 -0.1118,0.33541z" fill="#000000" stroke="none" stroke-width="0.5" stroke-linecap="butt"/><path d="M248.15874,134.24161c-0.22361,0.1118 -0.33541,-0.1118 -0.33541,-0.1118l-0.15245,-0.31985c-0.03161,-1.52629 -0.40153,-3.52589 -1.06195,-4.9115c0,-1.00372 -3.08103,-5.30861 -4.13722,-5.24992c0,0 -0.25,0 -0.25,-0.25c0,-0.25 0.25,-0.25 0.25,-0.25c1.32757,0.04214 4.62384,4.31277 4.62384,5.63504c0.66674,1.24527 1.10726,3.5018 1.06195,4.9115l0.11304,0.21112c0,0 0.1118,0.22361 -0.1118,0.33541z" fill="#000000" stroke="none" stroke-width="0.5" stroke-linecap="butt"/><path d="M244.06464,132.14411c-0.25,0 -0.25,-0.25 -0.25,-0.25v-0.26549c0,-0.93767 -2.12567,-5.62529 -3.20133,-5.59071c0,0 -0.25,0 -0.25,-0.25c0,-0.25 0.25,-0.25 0.25,-0.25c1.47225,0.03049 3.70133,4.80344 3.70133,6.09071v0.26549c0,0 0,0.25 -0.25,0.25z" fill="#000000" stroke="none" stroke-width="0.5" stroke-linecap="butt"/><path d="M235.05357,158.04455c0,-0.25 0.25,-0.25 0.25,-0.25h0.13274c1.11026,0.03487 2.41702,-1.04753 3.32899,-1.58399c2.17442,-1.26945 4.82711,-3.43235 6.4347,-5.36146c0,0 0.16005,-0.19206 0.3521,-0.03201c0.19206,0.16005 0.03201,0.3521 0.03201,0.3521c-1.64631,1.97557 -4.3435,4.16336 -6.56583,5.47264c-1.04004,0.60821 -2.32324,1.62712 -3.58198,1.65271h-0.13274c0,0 -0.25,0 -0.25,-0.25z" fill="#000000" stroke="none" stroke-width="0.5" stroke-linecap="butt"/><path d="M241.55909,150.72588c0.00557,-0.05713 0.0397,-0.23221 0.24891,-0.23221c0.25,0 0.25,0.25 0.25,0.25l-0.1382,0.35635c-0.6012,0.29121 -1.07543,0.74155 -1.69129,1.04115c-1.39455,1.39964 -4.51021,4.79734 -6.62966,3.73761c0,0 -0.22361,-0.1118 -0.1118,-0.33541c0.1118,-0.22361 0.33541,-0.1118 0.33541,-0.1118c1.8229,0.91145 4.91176,-2.49834 6.1137,-3.69602c0.58814,-0.29948 1.05928,-0.69779 1.62293,-1.00967z" fill="#000000" stroke="none" stroke-width="0.5" stroke-linecap="butt"/><path d="M240.79009,148.97397c0.17678,0.17678 0,0.35355 0,0.35355l-0.29609,0.29152c-0.62809,0.32078 -1.12203,0.76374 -1.76004,1.08274c-1.09814,0.54907 -1.98833,1.85953 -3.08584,2.2702c-0.8005,0.29953 -2.51906,0.26524 -2.90855,1.06932c0,0 -0.1118,0.22361 -0.33541,0.1118c-0.22361,-0.1118 -0.1118,-0.33541 -0.1118,-0.33541c0.50935,-0.99476 2.255,-0.96344 3.19765,-1.32006c1.05168,-0.39786 1.9512,-1.7085 3.02035,-2.24307c0.61225,-0.30613 1.08213,-0.74421 1.69129,-1.04115l0.23489,-0.23945c0,0 0.17678,-0.17678 0.35355,0z" fill="#000000" stroke="none" stroke-width="0.5" stroke-linecap="butt"/></g></g></svg>