<svg version="1.1" xmlns="http://www.w3.org/2000/svg" xmlns:xlink="http://www.w3.org/1999/xlink" width="798.31791" height="317.81585" viewBox="0,0,798.31791,317.81585"><g transform="translate(267.92424,2.22965)"><g data-paper-data="{&quot;isPaintingLayer&quot;:true}" fill-rule="nonzero" stroke="none" stroke-width="0" stroke-linecap="butt" stroke-linejoin="miter" stroke-miterlimit="10" stroke-dasharray="" stroke-dashoffset="0" style="mix-blend-mode: normal"><path d="M-9.04714,154.27346v-156.5031h492.49227v156.5031z" fill="#a7a7a7"/><path d="M13.37267,150.84496c0.32196,-16.01753 13.20197,-28.74865 28.7683,-28.43576c15.56633,0.31289 27.92434,13.55131 27.60237,29.56884c-0.32196,16.01753 -13.20196,28.74865 -28.76829,28.43576c-15.56633,-0.31289 -27.92434,-13.55131 -27.60237,-29.56884z" fill="#ff0000"/><path d="M14.44826,178.65466c0.32196,-16.01753 13.20197,-28.74866 28.7683,-28.43577c15.56633,0.31289 27.92433,13.55132 27.60237,29.56885c-0.32196,16.01753 -13.20197,28.74865 -28.76829,28.43576c-15.56633,-0.31289 -27.92433,-13.55131 -27.60237,-29.56884z" fill="#fff400"/><path d="M-9.33203,162.23934c0.32196,-16.01753 13.20196,-28.74865 28.76829,-28.43576c15.56633,0.31289 27.92434,13.55131 27.60238,29.56884c-0.32196,16.01753 -13.20197,28.74866 -28.76829,28.43577c-15.56633,-0.31289 -27.92433,-13.55131 -27.60237,-29.56884z" fill="#00ff21"/><path d="M-32.85986,153.59348c0.32196,-16.01753 13.20197,-28.74865 28.7683,-28.43576c15.56633,0.31289 27.92433,13.55131 27.60237,29.56884c-0.32196,16.01753 -13.20197,28.74865 -28.76829,28.43576c-15.56633,-0.31289 -27.92433,-13.55131 -27.60237,-29.56884z" fill="#1e00ff"/><path d="M-255.17519,174.46103c0.32197,-16.01753 13.20196,-28.74865 28.76829,-28.43576c15.56633,0.31289 27.92434,13.55131 27.60237,29.56884c-0.32197,16.01753 -13.20197,28.74865 -28.76829,28.43576c-15.56633,-0.31289 -27.92434,-13.55131 -27.60237,-29.56884z" fill="#ff75f5"/><path d="M-262.76195,145.2945c0.32196,-16.01753 13.20196,-28.74865 28.76829,-28.43576c15.56633,0.31289 27.92433,13.55131 27.60237,29.56884c-0.32197,16.01753 -13.20197,28.74865 -28.76829,28.43576c-15.56633,-0.31289 -27.92433,-13.55131 -27.60237,-29.56884z" fill="#29ff00"/><path d="M-153.1173,164.17592c0,16.02076 -12.62155,29.00815 -28.19102,29.00815c-15.56948,0 -28.19102,-12.98739 -28.19102,-29.00815c0,-16.02076 12.62155,-29.00816 28.19102,-29.00816c15.56948,0 28.19102,12.9874 28.19102,29.00816z" fill="#00ffdd"/><path d="M-209.90791,206.25819c0,16.02077 -12.62155,29.00816 -28.19102,29.00816c-15.56947,0 -28.19102,-12.98739 -28.19102,-29.00816c0,-16.02077 12.62155,-29.00816 28.19102,-29.00816c15.56948,0 28.19102,12.98739 28.19102,29.00816z" fill="#ff0000"/><path d="M-211.54217,178.47573c0,16.02076 -12.62155,29.00816 -28.19103,29.00816c-15.56948,0 -28.19103,-12.9874 -28.19103,-29.00816c0,-16.02076 12.62156,-29.00815 28.19103,-29.00815c15.56948,0 28.19103,12.98739 28.19103,29.00815z" fill="#fff400"/><path d="M-187.43681,194.40979c0,16.02076 -12.62155,29.00815 -28.19102,29.00815c-15.56948,0 -28.19102,-12.98739 -28.19102,-29.00815c0,-16.02076 12.62155,-29.00816 28.19102,-29.00816c15.56948,0 28.19102,12.9874 28.19102,29.00816z" fill="#00ff21"/><path d="M-163.74,202.58109c0,16.02076 -12.62155,29.00816 -28.19103,29.00816c-15.56948,0 -28.19103,-12.9874 -28.19103,-29.00816c0,-16.02076 12.62156,-29.00815 28.19103,-29.00815c15.56948,0 28.19103,12.98739 28.19103,29.00815z" fill="#1e00ff"/><path d="M22.97448,197.26975c0,16.02076 -12.62155,29.00816 -28.19102,29.00816c-15.56948,0 -28.19103,-12.9874 -28.19103,-29.00816c0,-16.02076 12.62156,-29.00816 28.19103,-29.00816c15.56948,0 28.19102,12.9874 28.19102,29.00816z" fill="#ff0000"/><path d="M58.11112,177.25003c0,16.02076 -12.62155,29.00816 -28.19102,29.00816c-15.56948,0 -28.19103,-12.9874 -28.19103,-29.00816c0,-16.02076 12.62155,-29.00816 28.19103,-29.00816c15.56948,0 28.19102,12.9874 28.19102,29.00816z" fill="#ff75f5"/><path d="M66.28241,206.25819c0,16.02076 -12.62155,29.00816 -28.19103,29.00816c-15.56948,0 -28.19103,-12.9874 -28.19103,-29.00816c0,-16.02076 12.62155,-29.00816 28.19103,-29.00816c15.56948,0 28.19103,12.9874 28.19103,29.00816z" fill="#29ff00"/><path d="M-10.9114,192.43141c-15.56633,0.31289 -28.44633,-12.41824 -28.76829,-28.43577c-0.32196,-16.01753 12.03605,-29.25595 27.60238,-29.56884c15.56633,-0.31289 28.44632,12.41823 28.76829,28.43576c0.32196,16.01753 -12.03604,29.25596 -27.60237,29.56885z" data-paper-data="{&quot;index&quot;:null}" fill="#00ff21"/><path d="M99.396,189.85907c-15.56633,0.31289 -28.44632,-12.41823 -28.76829,-28.43576c-0.32196,-16.01753 12.03604,-29.25595 27.60237,-29.56884c15.56633,-0.31289 28.44633,12.41823 28.76829,28.43576c0.32196,16.01753 -12.03605,29.25595 -27.60238,29.56884z" data-paper-data="{&quot;index&quot;:null}" fill="#ff7be4"/><path d="M12.61641,183.78551c-15.56633,0.31289 -28.44633,-12.41823 -28.76829,-28.43576c-0.32196,-16.01753 12.03604,-29.25595 27.60237,-29.56884c15.56633,-0.31289 28.44633,12.41823 28.76829,28.43576c0.32196,16.01753 -12.03604,29.25595 -27.60237,29.56884z" data-paper-data="{&quot;index&quot;:null}" fill="#1e00ff"/><path d="M128.80624,190.4403c-15.56633,0.31289 -28.44633,-12.41823 -28.76829,-28.43576c-0.32196,-16.01753 12.03604,-29.25595 27.60237,-29.56884c15.56633,-0.31289 28.44633,12.41823 28.76829,28.43576c0.32196,16.01753 -12.03604,29.25595 -27.60237,29.56884z" data-paper-data="{&quot;index&quot;:null}" fill="#00ffdd"/><path d="M55.84111,194.29427c-15.56633,0.31289 -28.44633,-12.41823 -28.76829,-28.43576c-0.32196,-16.01753 12.03604,-29.25595 27.60237,-29.56884c15.56633,-0.31289 28.44633,12.41823 28.7683,28.43576c0.32196,16.01753 -12.03604,29.25595 -27.60237,29.56884z" data-paper-data="{&quot;index&quot;:null}" fill="#ff6800"/><path d="M81.73301,229.06002c-15.56633,0.31289 -28.44633,-12.41823 -28.7683,-28.43576c-0.32196,-16.01753 12.03605,-29.25595 27.60237,-29.56884c15.56633,-0.31289 28.44632,12.41823 28.76829,28.43576c0.32196,16.01753 -12.03604,29.25595 -27.60237,29.56884z" data-paper-data="{&quot;index&quot;:null}" fill="#ff0000"/><path d="M163.54987,170.53548c-15.56633,0.31289 -28.44633,-12.41823 -28.76829,-28.43576c-0.32196,-16.01753 12.03604,-29.25595 27.60237,-29.56884c15.56633,-0.31289 28.44633,12.41823 28.76829,28.43576c0.32197,16.01753 -12.03604,29.25595 -27.60237,29.56884z" data-paper-data="{&quot;index&quot;:null}" fill="#ffe100"/><path d="M234.9318,204.65305c-15.56633,0.31289 -28.44633,-12.41823 -28.76829,-28.43576c-0.32196,-16.01753 12.03604,-29.25595 27.60237,-29.56884c15.56633,-0.31289 28.44633,12.41823 28.76829,28.43576c0.32197,16.01753 -12.03604,29.25595 -27.60237,29.56884z" data-paper-data="{&quot;index&quot;:null}" fill="#ff75f5"/><path d="M242.5185,175.48653c-15.56633,0.31289 -28.44633,-12.41823 -28.7683,-28.43576c-0.32196,-16.01753 12.03604,-29.25595 27.60237,-29.56884c15.56633,-0.31289 28.44633,12.41823 28.76829,28.43576c0.32197,16.01753 -12.03604,29.25595 -27.60237,29.56884z" data-paper-data="{&quot;index&quot;:null}" fill="#29ff00"/><path d="M188.66729,135.79092c15.56947,0 28.19103,12.9874 28.19103,29.00816c0,16.02076 -12.62155,29.00815 -28.19103,29.00815c-15.56948,0 -28.19102,-12.98739 -28.19102,-29.00815c0,-16.02076 12.62155,-29.00816 28.19102,-29.00816z" data-paper-data="{&quot;index&quot;:null}" fill="#00ffdd"/><path d="M245.45791,177.87321c15.56948,0 28.19102,12.98739 28.19102,29.00815c0,16.02077 -12.62155,29.00816 -28.19102,29.00816c-15.56948,0 -28.19102,-12.98739 -28.19102,-29.00816c0,-16.02077 12.62155,-29.00815 28.19102,-29.00815z" data-paper-data="{&quot;index&quot;:null}" fill="#ff0000"/><path d="M247.09216,150.09071c15.56948,0 28.19103,12.98739 28.19103,29.00815c0,16.02076 -12.62155,29.00816 -28.19103,29.00816c-15.56948,0 -28.19103,-12.9874 -28.19103,-29.00816c0,-16.02076 12.62155,-29.00815 28.19103,-29.00815z" data-paper-data="{&quot;index&quot;:null}" fill="#fff400"/><path d="M222.9868,166.02479c15.56948,0 28.19102,12.9874 28.19102,29.00816c0,16.02076 -12.62155,29.00816 -28.19102,29.00816c-15.56948,0 -28.19103,-12.9874 -28.19103,-29.00816c0,-16.02076 12.62155,-29.00816 28.19103,-29.00816z" data-paper-data="{&quot;index&quot;:null}" fill="#00ff21"/><path d="M155.982,165.61622c15.56948,0 28.19102,12.9874 28.19102,29.00816c0,16.02076 -12.62155,29.00815 -28.19102,29.00815c-15.56948,0 -28.19103,-12.98739 -28.19103,-29.00815c0,-16.02076 12.62156,-29.00816 28.19103,-29.00816z" data-paper-data="{&quot;index&quot;:null}" fill="#ff7be4"/><path d="M199.29,174.19612c15.56947,0 28.19103,12.98739 28.19103,29.00815c0,16.02076 -12.62156,29.00816 -28.19103,29.00816c-15.56948,0 -28.19102,-12.9874 -28.19102,-29.00816c0,-16.02076 12.62155,-29.00815 28.19102,-29.00815z" data-paper-data="{&quot;index&quot;:null}" fill="#1e00ff"/><path d="M112.26553,177.46464c15.56947,0 28.19103,12.9874 28.19103,29.00816c0,16.02076 -12.62155,29.00816 -28.19103,29.00816c-15.56948,0 -28.19103,-12.9874 -28.19103,-29.00816c0,-16.02076 12.62156,-29.00816 28.19103,-29.00816z" data-paper-data="{&quot;index&quot;:null}" fill="#ff6800"/><path d="M12.57551,168.88476c15.56948,0 28.19103,12.9874 28.19103,29.00816c0,16.02076 -12.62155,29.00816 -28.19103,29.00816c-15.56948,0 -28.19103,-12.9874 -28.19103,-29.00816c0,-16.02076 12.62155,-29.00816 28.19103,-29.00816z" data-paper-data="{&quot;index&quot;:null}" fill="#ff0000"/><path d="M48.12073,184.41025c15.56948,0 28.19103,12.9874 28.19103,29.00816c0,16.02076 -12.62155,29.00816 -28.19103,29.00816c-15.56948,0 -28.19103,-12.9874 -28.19103,-29.00816c0,-16.02076 12.62155,-29.00816 28.19103,-29.00816z" data-paper-data="{&quot;index&quot;:null}" fill="#ffe100"/><path d="M-22.56113,148.86504c15.56948,0 28.19102,12.9874 28.19102,29.00816c0,16.02076 -12.62155,29.00815 -28.19102,29.00815c-15.56948,0 -28.19103,-12.98739 -28.19103,-29.00815c0,-16.02076 12.62155,-29.00816 28.19103,-29.00816z" data-paper-data="{&quot;index&quot;:null}" fill="#ff75f5"/><path d="M374.15009,153.34805c0.32196,-16.01753 13.20197,-28.74865 28.7683,-28.43576c15.56633,0.31289 27.92433,13.55131 27.60237,29.56884c-0.32196,16.01753 -13.20196,28.74865 -28.76829,28.43576c-15.56633,-0.31289 -27.92434,-13.55131 -27.60237,-29.56884z" fill="#ff0000"/><path d="M375.22569,181.15779c0.32196,-16.01753 13.20197,-28.74866 28.7683,-28.43577c15.56633,0.31289 27.92433,13.55132 27.60237,29.56885c-0.32196,16.01753 -13.20196,28.74865 -28.76829,28.43576c-15.56633,-0.31289 -27.92433,-13.55131 -27.60237,-29.56884z" fill="#fff400"/><path d="M351.4454,164.74248c0.32196,-16.01753 13.20196,-28.74865 28.76829,-28.43576c15.56633,0.31289 27.92434,13.55131 27.60237,29.56884c-0.32196,16.01753 -13.20196,28.74866 -28.76829,28.43577c-15.56633,-0.31289 -27.92433,-13.55131 -27.60237,-29.56884z" fill="#00ff21"/><path d="M241.13802,162.17018c0.32197,-16.01753 13.20197,-28.74865 28.76829,-28.43576c15.56633,0.31289 27.92433,13.55131 27.60237,29.56884c-0.32196,16.01753 -13.20196,28.74865 -28.76829,28.43576c-15.56633,-0.31289 -27.92434,-13.55131 -27.60237,-29.56884z" fill="#ff7be4"/><path d="M327.9176,156.09662c0.32196,-16.01753 13.20196,-28.74865 28.76829,-28.43576c15.56633,0.31289 27.92433,13.55131 27.60237,29.56884c-0.32196,16.01753 -13.20196,28.74865 -28.76829,28.43576c-15.56633,-0.31289 -27.92433,-13.55131 -27.60237,-29.56884z" fill="#1e00ff"/><path d="M211.72777,162.7514c0.32197,-16.01753 13.20197,-28.74865 28.7683,-28.43576c15.56633,0.31289 27.92433,13.55131 27.60237,29.56884c-0.32196,16.01753 -13.20196,28.74865 -28.76829,28.43576c-15.56633,-0.31289 -27.92434,-13.55131 -27.60238,-29.56884z" fill="#00ffdd"/><path d="M284.69292,166.60537c0.32197,-16.01753 13.20197,-28.74865 28.7683,-28.43576c15.56633,0.31289 27.92433,13.55131 27.60237,29.56884c-0.32196,16.01753 -13.20196,28.74865 -28.76829,28.43576c-15.56633,-0.31289 -27.92434,-13.55131 -27.60237,-29.56884z" fill="#ff6800"/><path d="M258.80099,201.37112c0.32197,-16.01753 13.20196,-28.74865 28.76829,-28.43576c15.56633,0.31289 27.92434,13.55131 27.60237,29.56884c-0.32197,16.01753 -13.20196,28.74865 -28.7683,28.43576c-15.56633,-0.31289 -27.92433,-13.55131 -27.60237,-29.56884z" fill="#ff0000"/><path d="M176.98412,142.84658c0.32196,-16.01753 13.20197,-28.74865 28.76829,-28.43576c15.56633,0.31289 27.92434,13.55131 27.60237,29.56884c-0.32197,16.01753 -13.20196,28.74865 -28.76829,28.43576c-15.56633,-0.31289 -27.92434,-13.55131 -27.60237,-29.56884z" fill="#ffe100"/><path d="M105.60223,176.96415c0.32196,-16.01753 13.20196,-28.74865 28.76829,-28.43576c15.56633,0.31289 27.92434,13.55131 27.60237,29.56884c-0.32196,16.01753 -13.20196,28.74865 -28.76829,28.43576c-15.56633,-0.31289 -27.92433,-13.55131 -27.60237,-29.56884z" fill="#ff75f5"/><path d="M98.01551,147.79764c0.32197,-16.01753 13.20197,-28.74865 28.76829,-28.43576c15.56633,0.31289 27.92434,13.55131 27.60237,29.56884c-0.32196,16.01753 -13.20196,28.74865 -28.76829,28.43576c-15.56633,-0.31289 -27.92434,-13.55131 -27.60237,-29.56884z" fill="#29ff00"/><path d="M207.66013,166.67905c0,16.02076 -12.62155,29.00815 -28.19103,29.00815c-15.56948,0 -28.19103,-12.98739 -28.19103,-29.00815c0,-16.02076 12.62155,-29.00816 28.19103,-29.00816c15.56948,0 28.19103,12.9874 28.19103,29.00816z" fill="#00ffdd"/><path d="M150.86951,208.76131c0,16.02077 -12.62155,29.00816 -28.19102,29.00816c-15.56947,0 -28.19102,-12.98739 -28.19102,-29.00816c0,-16.02077 12.62155,-29.00816 28.19102,-29.00816c15.56948,0 28.19102,12.98739 28.19102,29.00816z" fill="#ff0000"/><path d="M149.23523,180.97884c0,16.02076 -12.62155,29.00816 -28.19103,29.00816c-15.56948,0 -28.19103,-12.9874 -28.19103,-29.00816c0,-16.02076 12.62156,-29.00815 28.19103,-29.00815c15.56947,0 28.19103,12.98739 28.19103,29.00815z" fill="#fff400"/><path d="M173.34062,196.91291c0,16.02076 -12.62155,29.00815 -28.19102,29.00815c-15.56948,0 -28.19102,-12.98739 -28.19102,-29.00815c0,-16.02076 12.62155,-29.00816 28.19102,-29.00816c15.56948,0 28.19102,12.9874 28.19102,29.00816z" fill="#00ff21"/><path d="M240.34538,196.50435c0,16.02076 -12.62155,29.00815 -28.19103,29.00815c-15.56948,0 -28.19103,-12.98739 -28.19103,-29.00815c0,-16.02076 12.62155,-29.00816 28.19103,-29.00816c15.56948,0 28.19103,12.9874 28.19103,29.00816z" fill="#ff7be4"/><path d="M197.03741,205.08422c0,16.02076 -12.62155,29.00816 -28.19103,29.00816c-15.56948,0 -28.19103,-12.9874 -28.19103,-29.00816c0,-16.02076 12.62156,-29.00815 28.19103,-29.00815c15.56948,0 28.19103,12.98739 28.19103,29.00815z" fill="#1e00ff"/><path d="M284.06187,208.35275c0,16.02076 -12.62155,29.00816 -28.19103,29.00816c-15.56948,0 -28.19102,-12.9874 -28.19102,-29.00816c0,-16.02076 12.62155,-29.00815 28.19102,-29.00815c15.56948,0 28.19103,12.98739 28.19103,29.00815z" fill="#ff6800"/><path d="M383.7519,199.77287c0,16.02076 -12.62155,29.00815 -28.19102,29.00815c-15.56948,0 -28.19103,-12.98739 -28.19103,-29.00815c0,-16.02076 12.62155,-29.00816 28.19103,-29.00816c15.56947,0 28.19102,12.9874 28.19102,29.00816z" fill="#ff0000"/><path d="M348.20669,215.29836c0,16.02076 -12.62155,29.00816 -28.19102,29.00816c-15.56948,0 -28.19102,-12.9874 -28.19102,-29.00816c0,-16.02076 12.62155,-29.00816 28.19102,-29.00816c15.56948,0 28.19102,12.9874 28.19102,29.00816z" fill="#ffe100"/><path d="M418.88853,179.75316c0,16.02076 -12.62155,29.00816 -28.19102,29.00816c-15.56948,0 -28.19103,-12.9874 -28.19103,-29.00816c0,-16.02076 12.62155,-29.00816 28.19103,-29.00816c15.56948,0 28.19102,12.9874 28.19102,29.00816z" fill="#ff75f5"/><path d="M427.05986,208.76131c0,16.02076 -12.62155,29.00816 -28.19103,29.00816c-15.56948,0 -28.19102,-12.9874 -28.19102,-29.00816c0,-16.02076 12.62155,-29.00816 28.19102,-29.00816c15.56948,0 28.19103,12.9874 28.19103,29.00816z" fill="#29ff00"/><path d="M327.16132,183.54011c-15.56633,0.31289 -28.44632,-12.41823 -28.76829,-28.43576c-0.32196,-16.01753 12.03604,-29.25595 27.60237,-29.56884c15.56633,-0.31289 28.44633,12.41823 28.76829,28.43576c0.32196,16.01753 -12.03604,29.25595 -27.60237,29.56884z" data-paper-data="{&quot;index&quot;:null}" fill="#ff0000"/><path d="M326.08574,211.3498c-15.56633,0.31289 -28.44633,-12.41823 -28.76829,-28.43576c-0.32197,-16.01753 12.03604,-29.25595 27.60237,-29.56885c15.56633,-0.31289 28.44633,12.41824 28.76829,28.43577c0.32196,16.01753 -12.03604,29.25595 -27.60237,29.56884z" data-paper-data="{&quot;index&quot;:null}" fill="#fff400"/><path d="M349.86602,194.93452c-15.56633,0.31289 -28.44633,-12.41824 -28.7683,-28.43577c-0.32197,-16.01753 12.03605,-29.25595 27.60238,-29.56884c15.56633,-0.31289 28.44632,12.41823 28.76829,28.43576c0.32196,16.01753 -12.03604,29.25596 -27.60237,29.56885z" data-paper-data="{&quot;index&quot;:null}" fill="#00ff21"/><path d="M460.17342,192.36219c-15.56633,0.31289 -28.44632,-12.41823 -28.76829,-28.43576c-0.32196,-16.01753 12.03604,-29.25595 27.60237,-29.56884c15.56633,-0.31289 28.44633,12.41823 28.76829,28.43576c0.32196,16.01753 -12.03605,29.25595 -27.60237,29.56884z" data-paper-data="{&quot;index&quot;:null}" fill="#ff7be4"/><path d="M373.39384,186.28864c-15.56633,0.31289 -28.44633,-12.41823 -28.7683,-28.43576c-0.32196,-16.01753 12.03604,-29.25595 27.60237,-29.56884c15.56633,-0.31289 28.44633,12.41823 28.76829,28.43576c0.32196,16.01753 -12.03604,29.25595 -27.60237,29.56884z" data-paper-data="{&quot;index&quot;:null}" fill="#1e00ff"/><path d="M489.58367,192.94343c-15.56633,0.31289 -28.44633,-12.41823 -28.76829,-28.43576c-0.32196,-16.01753 12.03604,-29.25595 27.60237,-29.56884c15.56633,-0.31289 28.44633,12.41823 28.7683,28.43576c0.32196,16.01753 -12.03605,29.25595 -27.60237,29.56884z" data-paper-data="{&quot;index&quot;:null}" fill="#00ffdd"/><path d="M416.61853,196.79739c-15.56633,0.31289 -28.44633,-12.41823 -28.76829,-28.43576c-0.32196,-16.01753 12.03604,-29.25595 27.60237,-29.56884c15.56633,-0.31289 28.44633,12.41823 28.7683,28.43576c0.32196,16.01753 -12.03604,29.25595 -27.60237,29.56884z" data-paper-data="{&quot;index&quot;:null}" fill="#ff6800"/><path d="M442.51045,231.56315c-15.56633,0.31289 -28.44633,-12.41823 -28.7683,-28.43576c-0.32196,-16.01753 12.03605,-29.25595 27.60237,-29.56884c15.56633,-0.31289 28.44633,12.41823 28.76829,28.43576c0.32196,16.01753 -12.03604,29.25595 -27.60237,29.56884z" data-paper-data="{&quot;index&quot;:null}" fill="#ff0000"/><path d="M473.04295,179.96777c15.56948,0 28.19103,12.9874 28.19103,29.00816c0,16.02076 -12.62155,29.00816 -28.19103,29.00816c-15.56948,0 -28.19103,-12.9874 -28.19103,-29.00816c0,-16.02076 12.62156,-29.00816 28.19103,-29.00816z" data-paper-data="{&quot;index&quot;:null}" fill="#ff6800"/><path d="M373.35294,171.38789c15.56948,0 28.19103,12.9874 28.19103,29.00816c0,16.02076 -12.62155,29.00816 -28.19103,29.00816c-15.56948,0 -28.19103,-12.9874 -28.19103,-29.00816c0,-16.02076 12.62155,-29.00816 28.19103,-29.00816z" data-paper-data="{&quot;index&quot;:null}" fill="#ff0000"/><path d="M408.89815,186.91337c15.56948,0 28.19102,12.9874 28.19102,29.00816c0,16.02076 -12.62155,29.00816 -28.19102,29.00816c-15.56948,0 -28.19103,-12.9874 -28.19103,-29.00816c0,-16.02076 12.62155,-29.00816 28.19103,-29.00816z" data-paper-data="{&quot;index&quot;:null}" fill="#ffe100"/><path d="M338.2163,151.36816c15.56948,0 28.19102,12.9874 28.19102,29.00816c0,16.02076 -12.62155,29.00815 -28.19102,29.00815c-15.56948,0 -28.19102,-12.98739 -28.19102,-29.00815c0,-16.02076 12.62155,-29.00816 28.19102,-29.00816z" data-paper-data="{&quot;index&quot;:null}" fill="#ff75f5"/><path d="M330.04498,180.37632c15.56948,0 28.19103,12.98739 28.19103,29.00815c0,16.02076 -12.62155,29.00816 -28.19103,29.00816c-15.56948,0 -28.19103,-12.9874 -28.19103,-29.00816c0,-16.02076 12.62155,-29.00815 28.19103,-29.00815z" data-paper-data="{&quot;index&quot;:null}" fill="#29ff00"/><path d="M268.48312,224.00462c0.32196,-16.01753 13.20197,-28.74865 28.7683,-28.43576c15.56633,0.31289 27.92433,13.55131 27.60237,29.56884c-0.32196,16.01753 -13.20196,28.74865 -28.76829,28.43576c-15.56633,-0.31289 -27.92434,-13.55131 -27.60237,-29.56884z" fill="#ff0000"/><path d="M269.55872,251.81432c0.32196,-16.01753 13.20197,-28.74866 28.7683,-28.43577c15.56633,0.31289 27.92433,13.55131 27.60237,29.56884c-0.32196,16.01753 -13.20196,28.74865 -28.76829,28.43576c-15.56633,-0.31289 -27.92433,-13.55131 -27.60237,-29.56884z" fill="#fff400"/><path d="M245.77847,235.39904c0.32197,-16.01753 13.20196,-28.74865 28.76829,-28.43576c15.56633,0.31289 27.92434,13.55131 27.60238,29.56884c-0.32196,16.01753 -13.20197,28.74865 -28.7683,28.43577c-15.56633,-0.31289 -27.92434,-13.55132 -27.60237,-29.56885z" fill="#00ff21"/><path d="M135.47106,232.8267c0.32197,-16.01753 13.20197,-28.74865 28.76829,-28.43576c15.56633,0.31289 27.92434,13.55131 27.60237,29.56884c-0.32197,16.01753 -13.20196,28.74865 -28.76829,28.43576c-15.56633,-0.31289 -27.92434,-13.55131 -27.60237,-29.56884z" fill="#ff7be4"/><path d="M222.25065,226.75316c0.32197,-16.01753 13.20197,-28.74865 28.76829,-28.43576c15.56633,0.31289 27.92434,13.55131 27.60237,29.56884c-0.32196,16.01753 -13.20197,28.74865 -28.7683,28.43576c-15.56633,-0.31289 -27.92434,-13.55131 -27.60237,-29.56884z" fill="#1e00ff"/><path d="M106.06083,233.40793c0.32197,-16.01753 13.20197,-28.74865 28.76829,-28.43576c15.56633,0.31289 27.92434,13.55131 27.60237,29.56884c-0.32197,16.01753 -13.20196,28.74865 -28.76829,28.43576c-15.56633,-0.31289 -27.92434,-13.55131 -27.60237,-29.56884z" fill="#00ffdd"/><path d="M179.02596,237.26191c0.32197,-16.01753 13.20197,-28.74865 28.76829,-28.43576c15.56633,0.31289 27.92433,13.55131 27.60237,29.56884c-0.32197,16.01753 -13.20197,28.74865 -28.76829,28.43576c-15.56633,-0.31289 -27.92433,-13.55131 -27.60237,-29.56884z" fill="#ff6800"/><path d="M153.13404,272.02763c0.32197,-16.01753 13.20196,-28.74865 28.76829,-28.43576c15.56633,0.31289 27.92434,13.55131 27.60237,29.56884c-0.32197,16.01753 -13.20197,28.74865 -28.76829,28.43576c-15.56633,-0.31289 -27.92434,-13.55131 -27.60237,-29.56884z" fill="#ff0000"/><path d="M71.31715,213.50311c0.32197,-16.01753 13.20197,-28.74865 28.7683,-28.43576c15.56633,0.31289 27.92433,13.55131 27.60237,29.56884c-0.32197,16.01753 -13.20196,28.74865 -28.76829,28.43576c-15.56633,-0.31289 -27.92434,-13.55131 -27.60238,-29.56884z" fill="#ffe100"/><path d="M-0.06473,247.62068c0.32197,-16.01753 13.20196,-28.74865 28.76829,-28.43576c15.56633,0.31289 27.92434,13.55131 27.60238,29.56884c-0.32196,16.01753 -13.20196,28.74865 -28.76829,28.43576c-15.56633,-0.31289 -27.92434,-13.55131 -27.60237,-29.56884z" fill="#ff75f5"/><path d="M-7.65142,218.45418c0.32196,-16.01753 13.20197,-28.74865 28.7683,-28.43576c15.56633,0.31289 27.92433,13.55131 27.60237,29.56884c-0.32196,16.01753 -13.20197,28.74865 -28.76829,28.43576c-15.56633,-0.31289 -27.92433,-13.55131 -27.60237,-29.56884z" fill="#29ff00"/><path d="M101.99317,237.33558c0,16.02076 -12.62155,29.00816 -28.19102,29.00816c-15.56947,0 -28.19102,-12.9874 -28.19102,-29.00816c0,-16.02076 12.62155,-29.00816 28.19102,-29.00816c15.56947,0 28.19102,12.9874 28.19102,29.00816z" fill="#00ffdd"/><path d="M45.20255,279.41783c0,16.02076 -12.62155,29.00816 -28.19102,29.00816c-15.56947,0 -28.19102,-12.98739 -28.19102,-29.00816c0,-16.02076 12.62155,-29.00815 28.19103,-29.00815c15.56948,0 28.19102,12.98739 28.19102,29.00815z" fill="#ff0000"/><path d="M43.5683,251.63538c0,16.02076 -12.62155,29.00816 -28.19102,29.00816c-15.56947,0 -28.19103,-12.9874 -28.19103,-29.00816c0,-16.02076 12.62156,-29.00816 28.19103,-29.00816c15.56948,0 28.19103,12.9874 28.19103,29.00816z" fill="#fff400"/><path d="M67.67364,267.56944c0,16.02076 -12.62155,29.00816 -28.19102,29.00816c-15.56947,0 -28.19103,-12.9874 -28.19103,-29.00816c0,-16.02076 12.62155,-29.00816 28.19103,-29.00816c15.56947,0 28.19102,12.9874 28.19102,29.00816z" fill="#00ff21"/><path d="M134.67842,267.16087c0,16.02076 -12.62155,29.00815 -28.19103,29.00815c-15.56947,0 -28.19103,-12.98739 -28.19103,-29.00815c0,-16.02076 12.62155,-29.00816 28.19103,-29.00816c15.56947,0 28.19103,12.9874 28.19103,29.00816z" fill="#ff7be4"/><path d="M91.37047,275.74073c0,16.02076 -12.62155,29.00816 -28.19102,29.00816c-15.56947,0 -28.19103,-12.9874 -28.19103,-29.00816c0,-16.02076 12.62156,-29.00815 28.19103,-29.00815c15.56947,0 28.19102,12.98739 28.19102,29.00815z" fill="#1e00ff"/><path d="M178.39494,279.00928c0,16.02076 -12.62155,29.00816 -28.19103,29.00816c-15.56948,0 -28.19102,-12.9874 -28.19102,-29.00816c0,-16.02076 12.62155,-29.00815 28.19102,-29.00815c15.56948,0 28.19103,12.98739 28.19103,29.00815z" fill="#ff6800"/><path d="M278.08493,270.4294c0,16.02076 -12.62155,29.00816 -28.19102,29.00816c-15.56948,0 -28.19103,-12.9874 -28.19103,-29.00816c0,-16.02076 12.62155,-29.00816 28.19103,-29.00816c15.56947,0 28.19102,12.9874 28.19102,29.00816z" fill="#ff0000"/><path d="M242.53974,285.95489c0,16.02076 -12.62155,29.00816 -28.19102,29.00816c-15.56948,0 -28.19102,-12.9874 -28.19102,-29.00816c0,-16.02076 12.62155,-29.00816 28.19102,-29.00816c15.56948,0 28.19102,12.9874 28.19102,29.00816z" fill="#ffe100"/><path d="M313.22157,250.40969c0,16.02076 -12.62155,29.00815 -28.19102,29.00815c-15.56948,0 -28.19103,-12.98739 -28.19103,-29.00815c0,-16.02076 12.62155,-29.00816 28.19103,-29.00816c15.56948,0 28.19102,12.9874 28.19102,29.00816z" fill="#ff75f5"/><path d="M321.39286,279.41783c0,16.02076 -12.62155,29.00816 -28.19103,29.00816c-15.56948,0 -28.19102,-12.9874 -28.19102,-29.00816c0,-16.02076 12.62155,-29.00815 28.19102,-29.00815c15.56948,0 28.19103,12.98739 28.19103,29.00815z" fill="#29ff00"/><path d="M221.49439,254.19664c-15.56633,0.31289 -28.44632,-12.41823 -28.76829,-28.43576c-0.32197,-16.01753 12.03604,-29.25595 27.60237,-29.56884c15.56633,-0.31289 28.44633,12.41823 28.76829,28.43576c0.32197,16.01753 -12.03605,29.25595 -27.60237,29.56884z" data-paper-data="{&quot;index&quot;:null}" fill="#ff0000"/><path d="M220.41881,282.00631c-15.56633,0.31289 -28.44633,-12.41823 -28.76829,-28.43576c-0.32197,-16.01753 12.03604,-29.25595 27.60237,-29.56884c15.56633,-0.31289 28.44633,12.41824 28.7683,28.43577c0.32197,16.01753 -12.03604,29.25595 -27.60237,29.56884z" data-paper-data="{&quot;index&quot;:null}" fill="#fff400"/><path d="M244.19909,265.59103c-15.56633,0.31289 -28.44633,-12.41824 -28.7683,-28.43577c-0.32197,-16.01753 12.03605,-29.25595 27.60238,-29.56884c15.56633,-0.31289 28.44633,12.41823 28.76829,28.43576c0.32196,16.01753 -12.03604,29.25596 -27.60237,29.56885z" data-paper-data="{&quot;index&quot;:null}" fill="#00ff21"/><path d="M354.50648,263.01869c-15.56633,0.31289 -28.44632,-12.41823 -28.76829,-28.43576c-0.32196,-16.01753 12.03604,-29.25595 27.60237,-29.56884c15.56633,-0.31289 28.44633,12.41823 28.76829,28.43576c0.32196,16.01753 -12.03605,29.25595 -27.60237,29.56884z" data-paper-data="{&quot;index&quot;:null}" fill="#ff7be4"/><path d="M267.72686,256.94516c-15.56633,0.31289 -28.44633,-12.41823 -28.76829,-28.43576c-0.32197,-16.01753 12.03604,-29.25595 27.60237,-29.56884c15.56633,-0.31289 28.44633,12.41823 28.76829,28.43576c0.32196,16.01753 -12.03604,29.25595 -27.60237,29.56884z" data-paper-data="{&quot;index&quot;:null}" fill="#1e00ff"/><path d="M383.91672,263.59996c-15.56633,0.31289 -28.44633,-12.41823 -28.76829,-28.43576c-0.32196,-16.01753 12.03604,-29.25595 27.60237,-29.56884c15.56633,-0.31289 28.44633,12.41823 28.7683,28.43576c0.32196,16.01753 -12.03605,29.25595 -27.60237,29.56884z" data-paper-data="{&quot;index&quot;:null}" fill="#00ffdd"/><path d="M310.95155,267.45392c-15.56633,0.31289 -28.44633,-12.41823 -28.76829,-28.43576c-0.32196,-16.01753 12.03604,-29.25595 27.60237,-29.56884c15.56633,-0.31289 28.44633,12.41823 28.7683,28.43576c0.32196,16.01753 -12.03604,29.25595 -27.60237,29.56884z" data-paper-data="{&quot;index&quot;:null}" fill="#ff6800"/><path d="M336.8435,302.21968c-15.56633,0.31289 -28.44633,-12.41823 -28.7683,-28.43576c-0.32196,-16.01753 12.03605,-29.25595 27.60237,-29.56884c15.56633,-0.31289 28.44633,12.41823 28.76829,28.43576c0.32196,16.01753 -12.03604,29.25595 -27.60237,29.56884z" data-paper-data="{&quot;index&quot;:null}" fill="#ff0000"/><path d="M418.66036,243.69513c-15.56633,0.31289 -28.44632,-12.41823 -28.76829,-28.43576c-0.32196,-16.01753 12.03604,-29.25595 27.60237,-29.56884c15.56633,-0.31289 28.44633,12.41823 28.76829,28.43576c0.32196,16.01753 -12.03605,29.25595 -27.60237,29.56884z" data-paper-data="{&quot;index&quot;:null}" fill="#ffe100"/><path d="M490.04226,277.81266c-15.56633,0.31289 -28.44633,-12.41823 -28.76829,-28.43576c-0.32196,-16.01753 12.03605,-29.25595 27.60237,-29.56884c15.56633,-0.31289 28.44633,12.41823 28.76829,28.43576c0.32196,16.01753 -12.03604,29.25595 -27.60237,29.56884z" data-paper-data="{&quot;index&quot;:null}" fill="#ff75f5"/><path d="M497.62898,248.64619c-15.56633,0.31289 -28.44633,-12.41823 -28.76829,-28.43576c-0.32196,-16.01753 12.03604,-29.25595 27.60237,-29.56884c15.56633,-0.31289 28.44633,12.41823 28.7683,28.43576c0.32196,16.01753 -12.03604,29.25595 -27.60237,29.56884z" data-paper-data="{&quot;index&quot;:null}" fill="#29ff00"/><path d="M443.77776,208.9506c15.56948,0 28.19103,12.9874 28.19103,29.00816c0,16.02076 -12.62155,29.00816 -28.19103,29.00816c-15.56948,0 -28.19103,-12.9874 -28.19103,-29.00816c0,-16.02076 12.62155,-29.00816 28.19103,-29.00816z" data-paper-data="{&quot;index&quot;:null}" fill="#00ffdd"/><path d="M502.20265,223.2504c15.56948,0 28.19103,12.98739 28.19103,29.00815c0,16.02076 -12.62156,29.00816 -28.19103,29.00816c-15.56948,0 -28.19102,-12.9874 -28.19102,-29.00816c0,-16.02076 12.62155,-29.00815 28.19102,-29.00815z" data-paper-data="{&quot;index&quot;:null}" fill="#fff400"/><path d="M478.09728,239.18446c15.56948,0 28.19103,12.9874 28.19103,29.00816c0,16.02076 -12.62155,29.00816 -28.19103,29.00816c-15.56948,0 -28.19102,-12.9874 -28.19102,-29.00816c0,-16.02076 12.62155,-29.00816 28.19102,-29.00816z" data-paper-data="{&quot;index&quot;:null}" fill="#00ff21"/><path d="M411.09251,238.77589c15.56948,0 28.19103,12.9874 28.19103,29.00816c0,16.02076 -12.62155,29.00815 -28.19103,29.00815c-15.56948,0 -28.19103,-12.98739 -28.19103,-29.00815c0,-16.02076 12.62156,-29.00816 28.19103,-29.00816z" data-paper-data="{&quot;index&quot;:null}" fill="#ff7be4"/><path d="M454.40047,247.35577c15.56948,0 28.19103,12.98739 28.19103,29.00815c0,16.02076 -12.62155,29.00816 -28.19103,29.00816c-15.56948,0 -28.19103,-12.9874 -28.19103,-29.00816c0,-16.02076 12.62155,-29.00815 28.19103,-29.00815z" data-paper-data="{&quot;index&quot;:null}" fill="#1e00ff"/><path d="M367.376,250.6243c15.56948,0 28.19103,12.98739 28.19103,29.00815c0,16.02076 -12.62155,29.00816 -28.19103,29.00816c-15.56948,0 -28.19103,-12.9874 -28.19103,-29.00816c0,-16.02076 12.62156,-29.00815 28.19103,-29.00815z" data-paper-data="{&quot;index&quot;:null}" fill="#ff6800"/><path d="M267.68597,242.04442c15.56948,0 28.19103,12.9874 28.19103,29.00816c0,16.02076 -12.62155,29.00816 -28.19103,29.00816c-15.56948,0 -28.19103,-12.9874 -28.19103,-29.00816c0,-16.02076 12.62155,-29.00816 28.19103,-29.00816z" data-paper-data="{&quot;index&quot;:null}" fill="#ff0000"/><path d="M303.23118,257.56989c15.56948,0 28.19102,12.9874 28.19102,29.00816c0,16.02076 -12.62155,29.00816 -28.19102,29.00816c-15.56948,0 -28.19103,-12.9874 -28.19103,-29.00816c0,-16.02076 12.62155,-29.00816 28.19103,-29.00816z" data-paper-data="{&quot;index&quot;:null}" fill="#ffe100"/><path d="M232.54935,222.02469c15.56948,0 28.19102,12.9874 28.19102,29.00816c0,16.02076 -12.62155,29.00816 -28.19102,29.00816c-15.56948,0 -28.19102,-12.98739 -28.19102,-29.00816c0,-16.02076 12.62155,-29.00816 28.19102,-29.00816z" data-paper-data="{&quot;index&quot;:null}" fill="#ff75f5"/><path d="M224.37803,251.03286c15.56948,0 28.19102,12.9874 28.19102,29.00816c0,16.02076 -12.62155,29.00816 -28.19102,29.00816c-15.56948,0 -28.19103,-12.9874 -28.19103,-29.00816c0,-16.02076 12.62156,-29.00816 28.19103,-29.00816z" data-paper-data="{&quot;index&quot;:null}" fill="#29ff00"/><path d="M431.1625,37.07482v-5.71701h9.29014v5.71701z" fill="#a7a7a7"/></g></g></svg>