<svg version="1.1" xmlns="http://www.w3.org/2000/svg" xmlns:xlink="http://www.w3.org/1999/xlink" width="127.92855" height="157.3407" viewBox="0,0,127.92855,157.3407"><g transform="translate(-176.03578,-78.9136)"><g data-paper-data="{&quot;isPaintingLayer&quot;:true}" fill-rule="nonzero" stroke-linejoin="miter" stroke-miterlimit="10" stroke-dasharray="" stroke-dashoffset="0" style="mix-blend-mode: normal"><path d="M295.17661,180c0,31.06839 -24.70342,56.2543 -55.17662,56.2543c-10.18766,0 -19.73044,-2.81495 -27.9209,-7.72356c-1.6856,-1.91291 -3.93121,-3.48214 -6.29027,-4.39196c-12.77128,-10.30323 -20.96545,-26.24539 -20.96545,-44.13879c0,-31.06839 24.70342,-56.25429 55.17663,-56.25429c30.47321,0 55.17663,25.18591 55.17663,56.2543z" fill="#fffe7d" stroke="#000000" stroke-width="0" stroke-linecap="butt"/><path d="M218.72999,170.91743c0,3.40387 -6.00931,6.16324 -13.42218,6.16324c-7.41286,0 -13.42218,-2.75938 -13.42218,-6.16324c0,-3.40387 6.00931,-6.16324 13.42218,-6.16324c7.41286,0 13.42218,2.75938 13.42218,6.16324z" fill="#ffffff" stroke="#000000" stroke-width="1" stroke-linecap="butt"/><path d="M265.81028,170.11325c0,3.40386 -6.00931,6.16324 -13.42218,6.16324c-7.41287,0 -13.42218,-2.75938 -13.42218,-6.16324c0,-3.40386 6.00931,-6.16324 13.42218,-6.16324c7.41287,0 13.42218,2.75938 13.42218,6.16324z" fill="#ffffff" stroke="#000000" stroke-width="1" stroke-linecap="butt"/><path d="M259.65849,208.70958c0.29973,7.78668 -12.04505,14.58356 -27.57286,15.18128c-15.52781,0.59771 -28.35856,-5.23008 -28.6583,-13.01675c-0.29973,-7.78668 12.04505,-14.58356 27.57286,-15.18127c15.52781,-0.59771 28.35857,5.23007 28.6583,13.01675z" fill="#ff4242" stroke="none" stroke-width="0" stroke-linecap="butt"/><path d="M210.67708,205.08825l-0.34911,-9.06954l8.90465,-0.34276l0.34911,9.06952z" fill="#ffffff" stroke="none" stroke-width="0" stroke-linecap="butt"/><path d="M220.64793,204.87144l-0.34912,-9.06954l8.90465,-0.34277l0.34911,9.06955z" fill="#ffffff" stroke="none" stroke-width="0" stroke-linecap="butt"/><path d="M230.92247,204.37598l-0.34913,-9.06955l8.90464,-0.34277l0.34912,9.06954z" fill="#ffffff" stroke="none" stroke-width="0" stroke-linecap="butt"/><path d="M241.53085,204.38419l-0.34911,-9.06955l8.90465,-0.34276l0.34911,9.06954z" fill="#ffffff" stroke="none" stroke-width="0" stroke-linecap="butt"/><path d="M252.2907,204.33956l-0.34911,-9.06954l8.90465,-0.34277l0.34911,9.06954z" fill="#ffffff" stroke="none" stroke-width="0" stroke-linecap="butt"/><path d="M200.33198,205.41186l-0.34911,-9.06954l8.90465,-0.34277l0.34912,9.06954z" fill="#ffffff" stroke="none" stroke-width="0" stroke-linecap="butt"/><path d="M210.80492,226.32119l-0.34911,-9.06955l8.90465,-0.34277l0.34911,9.06954z" fill="#ffffff" stroke="none" stroke-width="0" stroke-linecap="butt"/><path d="M221.09264,226.30482l-0.34911,-9.06955l8.90464,-0.34277l0.34912,9.06954z" fill="#ffffff" stroke="none" stroke-width="0" stroke-linecap="butt"/><path d="M231.53255,225.95231l-0.34911,-9.06954l8.90465,-0.34277l0.34912,9.06955z" fill="#ffffff" stroke="none" stroke-width="0" stroke-linecap="butt"/><path d="M241.87012,225.50503l-0.34911,-9.06954l8.90464,-0.34277l0.34912,9.06954z" fill="#ffffff" stroke="none" stroke-width="0" stroke-linecap="butt"/><path d="M259.95721,209.30642c0,0 -3.02832,-7.50978 -10.07953,-11.12107c-6.05179,-3.09942 -15.83616,-2.387 -20.44733,-2.30259c-3.81596,0.06986 -11.40681,0.638 -16.34495,3.62302c-6.71224,4.0574 -10.39317,10.84895 -10.39317,10.84895l-6.5931,-0.07193l5.50354,-18.09692l60.85663,-1.86563l3.91114,17.97298z" fill="#fffe7d" stroke="#fffe7d" stroke-width="0.5" stroke-linecap="round"/><path d="M261.88746,209.53889l-11.113,17.95514l-38.99462,0.70697c-1.28567,-1.37593 -2.85989,-2.55626 -4.54531,-3.41563l-9.01984,-12.19933l4.67981,-2.32635c0,0 2.01196,6.36244 5.40637,8.54988c6.19872,3.9946 16.31311,4.95033 22.29132,4.79547c4.65536,-0.12058 15.15018,-0.59728 21.07805,-4.1316c2.11194,-1.25919 4.18749,-2.75392 5.37608,-4.32537c2.40436,-3.17881 2.66602,-6.36008 2.66602,-6.36008z" fill="#fffe7d" stroke="#fffe7d" stroke-width="0.5" stroke-linecap="round"/><path d="M212.67444,170.81594c0,3.08129 -1.027,5.57918 -2.29387,5.57918c-1.26687,0 -2.29387,-2.49788 -2.29387,-5.57918c0,-3.08129 1.027,-5.57918 2.29387,-5.57918c1.26687,0 2.29387,2.49788 2.29387,5.57918z" fill="#ffffff" stroke="#000000" stroke-width="1" stroke-linecap="butt"/><path d="M260.01827,170.26019c0,3.08129 -1.027,5.57918 -2.29387,5.57918c-1.26687,0 -2.29387,-2.49788 -2.29387,-5.57918c0,-3.08129 1.027,-5.57918 2.29387,-5.57918c1.26687,0 2.29387,2.49788 2.29387,5.57918z" fill="#ffffff" stroke="#000000" stroke-width="1" stroke-linecap="butt"/><path d="M176.03578,150.87341l9.01867,-27.95424l108.98934,-0.30062l9.92054,28.25486z" fill="#7b4c00" stroke="none" stroke-width="0" stroke-linecap="butt"/><path d="M194.59684,128.02902v-49.11542h91.94865v49.11542z" fill="#7b4c00" stroke="none" stroke-width="0" stroke-linecap="butt"/></g></g></svg>