<svg version="1.1" xmlns="http://www.w3.org/2000/svg" xmlns:xlink="http://www.w3.org/1999/xlink" width="530.49977" height="319.48941" viewBox="0,0,530.49977,319.48941"><g transform="translate(39.85826,9.93541)"><g data-paper-data="{&quot;isPaintingLayer&quot;:true}" fill="none" fill-rule="nonzero" stroke="#000000" stroke-width="2" stroke-linecap="round" stroke-linejoin="miter" stroke-miterlimit="10" stroke-dasharray="" stroke-dashoffset="0" style="mix-blend-mode: normal"><path d="M96.83763,-8.93541l-5.84336,242.17495l-129.85253,75.31446"/><path d="M92.94205,233.23954c0,0 43.3557,-28.56755 86.35193,-28.56755c14.14926,0 63.1097,-7.77437 86.36751,-8.16742c35.2326,-0.59543 92.62204,5.85121 129.25806,9.38574c63.61681,6.13754 94.72196,27.34924 94.72196,27.34924"/><path d="M118.71845,147.99205l33.1124,-30.51535l73.36667,2.59705l-24.67198,27.91829l-80.50856,-0.64927l0.64926,21.42567"/><path d="M199.22703,147.99203l-1.29852,19.47788"/><path d="M221.9512,144.09646l1.29853,-21.42567"/><path d="M151.83085,117.47669v20.12714"/><path d="M260.25768,86.31209l33.1124,-30.51534l73.36667,2.59705l-24.67198,27.91829l-80.50856,-0.64927l0.64926,21.42567"/><path d="M339.46776,105.78996l1.29852,-19.47788"/><path d="M363.49046,82.41651l1.29853,-21.42567"/><path d="M293.3701,55.79674v20.12714"/><path d="M374.33384,88.71504l33.11239,-30.51534l73.36668,2.59705l-24.67198,27.91829l-80.50856,-0.64927l0.64926,21.42567"/><path d="M453.54388,108.19291l1.29853,-19.47788"/><path d="M478.8651,63.39379l-1.29853,21.42567"/><path d="M407.44623,58.19969v20.12714"/><path d="M139.30075,85.46871l33.11239,-30.51534l73.36668,2.59705l-24.67198,27.91829l-80.50856,-0.64926l0.64926,21.42567"/><path d="M219.80933,85.46872l-1.29853,19.47788"/><path d="M242.53351,81.57314l1.29852,-21.42567"/><path d="M172.41316,54.95337v20.12714"/></g></g></svg>