<svg version="1.1" xmlns="http://www.w3.org/2000/svg" xmlns:xlink="http://www.w3.org/1999/xlink" width="127.92855" height="157.3407" viewBox="0,0,127.92855,157.3407"><g transform="translate(-176.03572,-78.9136)"><g data-paper-data="{&quot;isPaintingLayer&quot;:true}" fill-rule="nonzero" stroke-linecap="butt" stroke-linejoin="miter" stroke-miterlimit="10" stroke-dasharray="" stroke-dashoffset="0" style="mix-blend-mode: normal"><path d="M295.17663,180c0,31.06839 -24.70342,56.2543 -55.17662,56.2543c-30.47321,0 -55.17662,-25.18591 -55.17662,-56.2543c0,-31.06839 24.70342,-56.25429 55.17663,-56.25429c30.47321,0 55.17663,25.18591 55.17663,56.2543z" fill="#fffe7d" stroke="#000000" stroke-width="0"/><path d="M176.03573,150.87341v-28.55548h127.92855v28.55548z" fill="#7b4c00" stroke="none" stroke-width="0"/><path d="M194.59679,128.02902v-49.11542h91.94865v49.11542z" fill="#7b4c00" stroke="none" stroke-width="0"/><path d="M264.55771,206.84215c0,4.25811 -10.16806,14.56329 -23.41549,14.56329c-13.24743,0 -26.27105,-12.01851 -26.27105,-16.27662c0,-4.25811 11.88139,3.1411 25.12883,3.1411c13.24743,0 24.55771,-5.68588 24.55771,-1.42777z" fill="#ff4242" stroke="#000000" stroke-width="0"/><path d="M229.24547,170.91743c0,3.40387 -6.00931,6.16324 -13.42218,6.16324c-7.41286,0 -13.42218,-2.75938 -13.42218,-6.16324c0,-3.40387 6.00931,-6.16324 13.42218,-6.16324c7.41286,0 13.42218,2.75938 13.42218,6.16324z" fill="#ffffff" stroke="#000000" stroke-width="1"/><path d="M219.08815,171.10252c0,3.30574 -1.38052,5.98557 -3.08347,5.98557c-1.70296,0 -3.08347,-2.67983 -3.08347,-5.98557c0,-3.30574 1.38052,-5.98557 3.08347,-5.98557c1.70296,0 3.08347,2.67983 3.08347,5.98557z" fill="#ffffff" stroke="#000000" stroke-width="1"/><path d="M276.32581,170.11325c0,3.40386 -6.00931,6.16324 -13.42218,6.16324c-7.41287,0 -13.42218,-2.75938 -13.42218,-6.16324c0,-3.40386 6.00931,-6.16324 13.42218,-6.16324c7.41287,0 13.42218,2.75938 13.42218,6.16324z" fill="#ffffff" stroke="#000000" stroke-width="1"/><path d="M266.53125,170.29833c0,3.30573 -1.38052,5.98557 -3.08348,5.98557c-1.70296,0 -3.08347,-2.67983 -3.08347,-5.98557c0,-3.30573 1.38052,-5.98557 3.08347,-5.98557c1.70295,0 3.08348,2.67983 3.08348,5.98557z" fill="#ffffff" stroke="#000000" stroke-width="1"/></g></g></svg>