<svg version="1.1" xmlns="http://www.w3.org/2000/svg" xmlns:xlink="http://www.w3.org/1999/xlink" width="127.92855" height="157.3407" viewBox="0,0,127.92855,157.3407"><g transform="translate(-176.03576,-78.9136)"><g data-paper-data="{&quot;isPaintingLayer&quot;:true}" fill-rule="nonzero" stroke-linejoin="miter" stroke-miterlimit="10" stroke-dasharray="" stroke-dashoffset="0" style="mix-blend-mode: normal"><path d="M295.17663,180c0,31.06839 -24.70342,56.2543 -55.17662,56.2543c-30.47321,0 -55.17662,-25.18591 -55.17662,-56.2543c0,-31.06839 24.70342,-56.25429 55.17663,-56.25429c30.47321,0 55.17663,25.18591 55.17663,56.2543z" fill="#fffe7d" stroke="#000000" stroke-width="0" stroke-linecap="butt"/><path d="M176.03577,150.87341l9.01867,-27.95424l108.98934,-0.30062l9.92054,28.25486z" fill="#7b4c00" stroke="none" stroke-width="0" stroke-linecap="butt"/><path d="M194.59683,128.02902v-49.11542h91.94865v49.11542z" fill="#7b4c00" stroke="none" stroke-width="0" stroke-linecap="butt"/><path d="M229.2455,170.91743c0,3.40387 -6.00931,6.16324 -13.42218,6.16324c-7.41286,0 -13.42218,-2.75938 -13.42218,-6.16324c0,-3.40387 6.00931,-6.16324 13.42218,-6.16324c7.41286,0 13.42218,2.75938 13.42218,6.16324z" fill="#ffffff" stroke="#000000" stroke-width="1" stroke-linecap="butt"/><path d="M219.08819,171.10252c0,3.30574 -1.38052,5.98557 -3.08347,5.98557c-1.70296,0 -3.08347,-2.67983 -3.08347,-5.98557c0,-3.30574 1.38052,-5.98557 3.08347,-5.98557c1.70296,0 3.08347,2.67983 3.08347,5.98557z" fill="#ffffff" stroke="#000000" stroke-width="1" stroke-linecap="butt"/><path d="M276.32581,170.11325c0,3.40386 -6.00931,6.16324 -13.42218,6.16324c-7.41287,0 -13.42218,-2.75938 -13.42218,-6.16324c0,-3.40386 6.00931,-6.16324 13.42218,-6.16324c7.41287,0 13.42218,2.75938 13.42218,6.16324z" fill="#ffffff" stroke="#000000" stroke-width="1" stroke-linecap="butt"/><path d="M266.53128,170.29833c0,3.30573 -1.38052,5.98557 -3.08348,5.98557c-1.70296,0 -3.08347,-2.67983 -3.08347,-5.98557c0,-3.30573 1.38052,-5.98557 3.08347,-5.98557c1.70295,0 3.08348,2.67983 3.08348,5.98557z" fill="#ffffff" stroke="#000000" stroke-width="1" stroke-linecap="butt"/><path d="M268.13642,211.51937c0,7.79244 -12.5971,14.10946 -28.13641,14.10946c-15.53931,0 -28.1364,-6.31702 -28.1364,-14.10946c0,-7.79244 12.5971,-14.10945 28.1364,-14.10945c15.53931,0 28.13641,6.31701 28.13641,14.10945z" fill="#ff4242" stroke="none" stroke-width="0" stroke-linecap="butt"/><path d="M219.33055,206.01666v-9.07625h8.91124v9.07625z" fill="#ffffff" stroke="none" stroke-width="0" stroke-linecap="butt"/><path d="M229.30233,206.18354v-9.07626h8.91124v9.07626z" fill="#ffffff" stroke="none" stroke-width="0" stroke-linecap="butt"/><path d="M239.58833,206.08365v-9.07626h8.91123v9.07626z" fill="#ffffff" stroke="none" stroke-width="0" stroke-linecap="butt"/><path d="M250.18855,206.49991v-9.07626h8.91124v9.07626z" fill="#ffffff" stroke="none" stroke-width="0" stroke-linecap="butt"/><path d="M260.94216,206.86918v-9.07626h8.91124v9.07626z" fill="#ffffff" stroke="none" stroke-width="0" stroke-linecap="butt"/><path d="M208.98066,205.94211v-9.07626h8.91124v9.07626z" fill="#ffffff" stroke="none" stroke-width="0" stroke-linecap="butt"/><path d="M218.64156,227.23881v-9.07626h8.91124v9.07626z" fill="#ffffff" stroke="none" stroke-width="0" stroke-linecap="butt"/><path d="M228.92229,227.61817v-9.07626h8.91124v9.07626z" fill="#ffffff" stroke="none" stroke-width="0" stroke-linecap="butt"/><path d="M239.36805,227.66748v-9.07626h8.91124v9.07626z" fill="#ffffff" stroke="none" stroke-width="0" stroke-linecap="butt"/><path d="M249.71518,227.61817v-9.07626h8.91123v9.07626z" fill="#ffffff" stroke="none" stroke-width="0" stroke-linecap="butt"/><path d="M268.41193,212.12726c0,0 -2.73722,-7.62071 -9.6443,-11.50055c-5.92809,-3.32991 -15.73263,-2.99437 -20.34364,-3.08739c-3.81582,-0.07698 -11.42291,0.19877 -16.47222,2.99163c-6.86333,3.79621 -10.80278,10.44115 -10.80278,10.44115l-6.58546,-0.32548l6.19557,-17.87183l60.88335,0.47658l3.21693,18.11012z" fill="#fffe7d" stroke="#fffe7d" stroke-width="0.5" stroke-linecap="round"/><path d="M270.33184,212.43381l-11.79541,17.51439l-40.98605,-0.83402l-10.96139,-16.08464l4.76582,-2.14462c0,0 1.76574,6.43512 5.07351,8.75151c6.04048,4.23008 16.11063,5.57414 22.09037,5.64935c4.65655,0.05857 15.16194,-0.01409 21.22136,-3.31778c2.15882,-1.17702 4.29032,-2.59082 5.53848,-4.11538c2.52485,-3.08398 2.90869,-6.25283 2.90869,-6.25283z" fill="#fffe7d" stroke="#fffe7d" stroke-width="0.5" stroke-linecap="round"/></g></g></svg>