<svg version="1.1" xmlns="http://www.w3.org/2000/svg" xmlns:xlink="http://www.w3.org/1999/xlink" width="121.6883" height="170.15824" viewBox="0,0,121.6883,170.15824"><g transform="translate(-179.03566,-58.74785)"><g data-paper-data="{&quot;isPaintingLayer&quot;:true}" fill-rule="nonzero" stroke-linecap="butt" stroke-linejoin="miter" stroke-miterlimit="10" stroke-dasharray="" stroke-dashoffset="0" style="mix-blend-mode: normal"><path d="M199.60284,228.9061v-107.83253h80.79432v107.83253z" fill="#7b7b7b" stroke="none" stroke-width="0"/><path d="M215.80467,207.90638v-9.4492h6.74942v9.4492z" fill="#ffffff" stroke="none" stroke-width="0"/><path d="M224.34812,208.18178v-9.44919h6.74942v9.44919z" fill="#ffffff" stroke="none" stroke-width="0"/><path d="M232.21663,207.78225v-9.44919h6.74942v9.44919z" fill="#ffffff" stroke="none" stroke-width="0"/><path d="M240.25386,207.88891v-9.44919h6.74942v9.44919z" fill="#ffffff" stroke="none" stroke-width="0"/><path d="M248.62858,207.99558v-9.44919h6.74942v9.44919z" fill="#ffffff" stroke="none" stroke-width="0"/><path d="M257.00329,208.10225v-9.44919h6.74942v9.44919z" fill="#ffffff" stroke="none" stroke-width="0"/><path d="M228.74346,147.19547c0,3.86016 -6.81486,6.98943 -15.22144,6.98943c-8.40656,0 -15.22144,-3.12928 -15.22144,-6.98943c0,-3.86016 6.81486,-6.98943 15.22144,-6.98943c8.40656,0 15.22144,3.12928 15.22144,6.98943z" fill="#ffffff" stroke="#000000" stroke-width="1"/><path d="M217.22455,147.40538c0,3.74888 -1.56558,6.78794 -3.49681,6.78794c-1.93124,0 -3.49681,-3.03906 -3.49681,-6.78794c0,-3.74888 1.56558,-6.78794 3.49681,-6.78794c1.93124,0 3.49681,3.03906 3.49681,6.78794z" fill="#ffffff" stroke="#000000" stroke-width="1"/><path d="M282.13494,146.28349c0,3.86015 -6.81486,6.98943 -15.22144,6.98943c-8.40657,0 -15.22144,-3.12928 -15.22144,-6.98943c0,-3.86015 6.81486,-6.98943 15.22144,-6.98943c8.40657,0 15.22144,3.12928 15.22144,6.98943z" fill="#ffffff" stroke="#000000" stroke-width="1"/><path d="M271.02744,146.49338c0,3.74887 -1.56558,6.78794 -3.49682,6.78794c-1.93124,0 -3.49681,-3.03906 -3.49681,-6.78794c0,-3.74887 1.56558,-6.78794 3.49681,-6.78794c1.93123,0 3.49682,3.03906 3.49682,6.78794z" fill="#ffffff" stroke="#000000" stroke-width="1"/><path d="M215.73837,213.31702v-8.54283h48.52325v8.54283z" fill="#bebebe" stroke="none" stroke-width="0"/><path d="M215.86674,191.68672v-9.44919h6.74942v9.44919z" fill="#ffffff" stroke="none" stroke-width="0"/><path d="M224.41019,191.96212v-9.44919h6.74942v9.44919z" fill="#ffffff" stroke="none" stroke-width="0"/><path d="M232.27869,191.56258v-9.44919h6.74942v9.44919z" fill="#ffffff" stroke="none" stroke-width="0"/><path d="M240.31593,191.66925v-9.44919h6.74942v9.44919z" fill="#ffffff" stroke="none" stroke-width="0"/><path d="M248.69064,191.77592v-9.44919h6.74942v9.44919z" fill="#ffffff" stroke="none" stroke-width="0"/><path d="M257.06535,191.88259v-9.44919h6.74942v9.44919z" fill="#ffffff" stroke="none" stroke-width="0"/><path d="M215.73837,184.27141v-8.54283h48.52325v8.54283z" fill="#bebebe" stroke="none" stroke-width="0"/><path d="M179.03566,122.03976v-13.63748h121.6883v13.63748z" fill="#b4b4b4" stroke="none" stroke-width="0"/><path d="M205.96095,119.24233v-60.49447h67.13837v60.49447z" fill="#b4b4b4" stroke="none" stroke-width="0"/></g></g></svg>