<svg version="1.1" xmlns="http://www.w3.org/2000/svg" xmlns:xlink="http://www.w3.org/1999/xlink" width="525.28482" height="345.51319" viewBox="0,0,525.28482,345.51319"><g transform="translate(15.99341,5.80397)"><g data-paper-data="{&quot;isPaintingLayer&quot;:true}" fill-rule="nonzero" stroke-linejoin="miter" stroke-miterlimit="10" stroke-dasharray="" stroke-dashoffset="0" style="mix-blend-mode: normal"><path d="M-14.99341,298.62645c0,0 69.57124,12.0529 120.94331,11.79169c52.59042,-0.26741 170.68333,3.11231 264.99076,-0.77762c75.00242,-3.09364 134.96059,-13.66269 134.96059,-13.66269" fill="none" stroke="#000000" stroke-width="2" stroke-linecap="round"/><path d="M20.74353,303.6157c0,0 -0.47032,-41.67629 5.50034,-91.01811c5.53543,-45.74503 17.4752,-98.3268 19.11703,-124.29762c1.63741,-25.90087 -5.19418,-91.92383 -5.19418,-91.92383" fill="none" stroke="#000000" stroke-width="2" stroke-linecap="round"/><path d="M453.045,302.43559c0,0 0.47033,-41.67629 -5.50034,-91.0181c-5.53543,-45.74503 -17.47519,-98.3268 -19.11703,-124.29762c-1.63741,-25.90087 5.19418,-91.92383 5.19418,-91.92383" data-paper-data="{&quot;index&quot;:null}" fill="none" stroke="#000000" stroke-width="2" stroke-linecap="round"/><path d="M30.45512,186.19368h410.53561" fill="none" stroke="#000000" stroke-width="2" stroke-linecap="round"/><path d="M144.69473,63.74363c0,21.45427 -17.19448,38.84638 -38.40495,38.84638c-21.21046,0 -38.40494,-17.39212 -38.40494,-38.84638c0,-21.45426 17.19448,-38.84638 38.40495,-38.84638c21.21047,0 38.40495,17.39212 38.40495,38.84638z" fill="none" stroke="#000000" stroke-width="2" stroke-linecap="butt"/><path d="M334.71756,60.94527l-11.67213,-33.12407l24.40949,20.14415l17.10566,-16.8582l-4.66571,29.29583l18.8006,15.10023l-27.69779,-3.50657l-8.20614,30.14213l-3.51125,-22.05738l-33.594,-9.84128z" fill="none" stroke="#000000" stroke-width="2" stroke-linecap="round"/><text transform="translate(152.37575,65.92153) rotate(-4.62537) scale(0.5,0.5)" font-size="40" xml:space="preserve" fill="#000000" fill-rule="nonzero" stroke="none" stroke-width="1" stroke-linecap="butt" stroke-linejoin="miter" stroke-miterlimit="10" stroke-dasharray="" stroke-dashoffset="0" font-family="Curly" font-weight="normal" text-anchor="start" style="mix-blend-mode: normal"><tspan x="0" dy="0">FRANKY FUNDEER</tspan></text><path d="M-12.60324,325.81001c0,0 69.57124,12.0529 120.94331,11.79169c52.59042,-0.26741 170.68333,3.11231 264.99076,-0.77762c75.00242,-3.09364 134.96058,-13.66269 134.96058,-13.66269" fill="none" stroke="#000000" stroke-width="2" stroke-linecap="round"/><path d="M383.90953,-0.91815v11.74424" fill="none" stroke="#000000" stroke-width="2" stroke-linecap="round"/><path d="M391.73902,-2.87552l-0.65245,16.9639" fill="none" stroke="#000000" stroke-width="2" stroke-linecap="round"/><path d="M371.44352,27.77721l-3.05838,-9.1701l20.7785,-8.66238l3.05838,9.1701z" fill="none" stroke="#000000" stroke-width="1.5" stroke-linecap="butt"/><path d="M379.58117,20.9111c0,1.68327 -1.67946,3.04782 -3.75117,3.04782c-2.07171,0 -3.75117,-1.36455 -3.75117,-3.04782c0,-1.68327 1.67946,-3.04783 3.75117,-3.04783c2.07171,0 3.75117,1.36456 3.75117,3.04783z" fill="none" stroke="#000000" stroke-width="1.5" stroke-linecap="butt"/></g></g></svg>