<svg version="1.1" xmlns="http://www.w3.org/2000/svg" xmlns:xlink="http://www.w3.org/1999/xlink" width="518.19909" height="198.71555" viewBox="0,0,518.19909,198.71555"><g transform="translate(21.5625,-207.53445)"><g data-paper-data="{&quot;isPaintingLayer&quot;:true}" fill-rule="nonzero" stroke="none" stroke-width="0" stroke-linecap="butt" stroke-linejoin="miter" stroke-miterlimit="10" stroke-dasharray="" stroke-dashoffset="0" style="mix-blend-mode: normal"><path d="M408.74921,267.10706c0.49252,-24.50269 20.1956,-43.97802 44.00807,-43.49938c23.81247,0.47864 42.71703,20.73001 42.22451,45.2327c-0.49252,24.50269 -20.1956,43.97802 -44.00807,43.49938c-23.81247,-0.47864 -42.71703,-20.73001 -42.22451,-45.2327z" fill="#ff0000"/><path d="M410.3946,309.64872c0.49252,-24.50269 20.1956,-43.97802 44.00807,-43.49938c23.81247,0.47864 42.71703,20.73001 42.22451,45.2327c-0.49252,24.50269 -20.1956,43.97802 -44.00807,43.49938c-23.81247,-0.47864 -42.71703,-20.73001 -42.22451,-45.2327z" fill="#fff400"/><path d="M374.0169,284.53758c0.49252,-24.50269 20.1956,-43.97802 44.00807,-43.49938c23.81247,0.47864 42.71703,20.73001 42.22451,45.2327c-0.49252,24.50269 -20.1956,43.97802 -44.00807,43.49938c-23.81247,-0.47864 -42.71703,-20.73001 -42.22451,-45.2327z" fill="#00ff21"/><path d="M205.27504,280.60258c0.49252,-24.50269 20.1956,-43.97802 44.00807,-43.49938c23.81247,0.47864 42.71703,20.73001 42.22451,45.2327c-0.49252,24.50269 -20.1956,43.97802 -44.00807,43.49938c-23.81247,-0.47864 -42.71703,-20.73001 -42.22451,-45.2327z" fill="#ff7be4"/><path d="M338.02543,271.31162c0.49252,-24.50269 20.1956,-43.97802 44.00807,-43.49938c23.81247,0.47864 42.71703,20.73001 42.22451,45.2327c-0.49252,24.50269 -20.1956,43.97802 -44.00807,43.49938c-23.81247,-0.47864 -42.71703,-20.73001 -42.22451,-45.2327z" fill="#1e00ff"/><path d="M160.28495,281.49172c0.49252,-24.50269 20.1956,-43.97802 44.00807,-43.49938c23.81247,0.47864 42.71703,20.73001 42.22451,45.2327c-0.49252,24.50269 -20.1956,43.97802 -44.00807,43.49938c-23.81247,-0.47864 -42.71703,-20.73001 -42.22451,-45.2327z" fill="#00ffdd"/><path d="M271.9028,287.38729c0.49252,-24.50269 20.1956,-43.97802 44.00807,-43.49938c23.81247,0.47864 42.71703,20.73001 42.22451,45.2327c-0.49252,24.50269 -20.1956,43.97802 -44.00807,43.49938c-23.81247,-0.47864 -42.71703,-20.73001 -42.22451,-45.2327z" fill="#ff6800"/><path d="M232.29483,340.56993c0.49252,-24.50269 20.1956,-43.97802 44.00807,-43.49938c23.81247,0.47864 42.71703,20.73001 42.22451,45.2327c-0.49252,24.50269 -20.1956,43.97802 -44.00807,43.49938c-23.81247,-0.47864 -42.71703,-20.73001 -42.22451,-45.2327z" fill="#ff0000"/><path d="M107.13614,251.04247c0.49252,-24.50269 20.1956,-43.97802 44.00807,-43.49938c23.81247,0.47864 42.71703,20.73001 42.22451,45.2327c-0.49252,24.50269 -20.1956,43.97802 -44.00807,43.49938c-23.81247,-0.47864 -42.71703,-20.73001 -42.22451,-45.2327z" fill="#ffe100"/><path d="M-2.05977,303.23356c0.49252,-24.50269 20.1956,-43.97802 44.00807,-43.49938c23.81247,0.47864 42.71703,20.73001 42.22451,45.2327c-0.49252,24.50269 -20.1956,43.97802 -44.00807,43.49938c-23.81247,-0.47864 -42.71703,-20.73001 -42.22451,-45.2327z" fill="#ff75f5"/><path d="M-13.66547,258.61632c0.49252,-24.50269 20.1956,-43.97802 44.00807,-43.49938c23.81247,0.47864 42.71703,20.73001 42.22451,45.2327c-0.49252,24.50269 -20.1956,43.97802 -44.00807,43.49938c-23.81247,-0.47864 -42.71703,-20.73001 -42.22451,-45.2327z" fill="#29ff00"/><path d="M154.0625,287.5c0,24.50763 -19.30772,44.375 -43.125,44.375c-23.81728,0 -43.125,-19.86737 -43.125,-44.375c0,-24.50763 19.30772,-44.375 43.125,-44.375c23.81728,0 43.125,19.86737 43.125,44.375z" fill="#00ffdd"/><path d="M67.1875,351.875c0,24.50764 -19.30772,44.375 -43.125,44.375c-23.81728,0 -43.125,-19.86736 -43.125,-44.375c0,-24.50764 19.30772,-44.375 43.125,-44.375c23.81728,0 43.125,19.86736 43.125,44.375z" fill="#ff0000"/><path d="M64.6875,309.375c0,24.50763 -19.30772,44.375 -43.125,44.375c-23.81728,0 -43.125,-19.86737 -43.125,-44.375c0,-24.50763 19.30772,-44.375 43.125,-44.375c23.81728,0 43.125,19.86737 43.125,44.375z" fill="#fff400"/><path d="M101.5625,333.75c0,24.50763 -19.30772,44.375 -43.125,44.375c-23.81728,0 -43.125,-19.86737 -43.125,-44.375c0,-24.50763 19.30772,-44.375 43.125,-44.375c23.81728,0 43.125,19.86737 43.125,44.375z" fill="#00ff21"/><path d="M204.0625,333.125c0,24.50763 -19.30772,44.375 -43.125,44.375c-23.81728,0 -43.125,-19.86737 -43.125,-44.375c0,-24.50763 19.30772,-44.375 43.125,-44.375c23.81728,0 43.125,19.86737 43.125,44.375z" fill="#ff7be4"/><path d="M137.8125,346.25c0,24.50763 -19.30772,44.375 -43.125,44.375c-23.81728,0 -43.125,-19.86737 -43.125,-44.375c0,-24.50763 19.30772,-44.375 43.125,-44.375c23.81728,0 43.125,19.86737 43.125,44.375z" fill="#1e00ff"/><path d="M270.9375,351.25c0,24.50763 -19.30772,44.375 -43.125,44.375c-23.81728,0 -43.125,-19.86737 -43.125,-44.375c0,-24.50763 19.30772,-44.375 43.125,-44.375c23.81728,0 43.125,19.86737 43.125,44.375z" fill="#ff6800"/><path d="M423.4375,338.125c0,24.50763 -19.30772,44.375 -43.125,44.375c-23.81728,0 -43.125,-19.86737 -43.125,-44.375c0,-24.50763 19.30772,-44.375 43.125,-44.375c23.81728,0 43.125,19.86737 43.125,44.375z" fill="#ff0000"/><path d="M369.0625,361.875c0,24.50763 -19.30772,44.375 -43.125,44.375c-23.81728,0 -43.125,-19.86737 -43.125,-44.375c0,-24.50763 19.30772,-44.375 43.125,-44.375c23.81728,0 43.125,19.86737 43.125,44.375z" fill="#ffe100"/><path d="M477.1875,307.5c0,24.50763 -19.30772,44.375 -43.125,44.375c-23.81728,0 -43.125,-19.86737 -43.125,-44.375c0,-24.50763 19.30772,-44.375 43.125,-44.375c23.81728,0 43.125,19.86737 43.125,44.375z" fill="#ff75f5"/><path d="M489.6875,351.875c0,24.50763 -19.30772,44.375 -43.125,44.375c-23.81728,0 -43.125,-19.86737 -43.125,-44.375c0,-24.50763 19.30772,-44.375 43.125,-44.375c23.81728,0 43.125,19.86737 43.125,44.375z" fill="#29ff00"/></g></g></svg>