<svg version="1.1" xmlns="http://www.w3.org/2000/svg" xmlns:xlink="http://www.w3.org/1999/xlink" width="74.9247" height="57.95543" viewBox="0,0,74.9247,57.95543"><g transform="translate(-201.90111,-163.45001)"><g data-paper-data="{&quot;isPaintingLayer&quot;:true}" fill-rule="nonzero" stroke="#000000" stroke-linecap="butt" stroke-linejoin="miter" stroke-miterlimit="10" stroke-dasharray="" stroke-dashoffset="0" style="mix-blend-mode: normal"><path d="M264.55771,206.84215c0,4.25811 -10.16806,14.56329 -23.41549,14.56329c-13.24743,0 -26.27105,-12.01851 -26.27105,-16.27662c0,-4.25811 11.88139,3.1411 25.12883,3.1411c13.24743,0 24.55771,-5.68588 24.55771,-1.42777z" fill="#ff4242" stroke-width="0"/><path d="M229.24548,170.91743c0,3.40387 -6.00931,6.16324 -13.42218,6.16324c-7.41286,0 -13.42218,-2.75938 -13.42218,-6.16324c0,-3.40387 6.00931,-6.16324 13.42218,-6.16324c7.41286,0 13.42218,2.75938 13.42218,6.16324z" fill="#ffffff" stroke-width="1"/><path d="M219.08816,171.10252c0,3.30574 -1.38052,5.98557 -3.08347,5.98557c-1.70296,0 -3.08347,-2.67983 -3.08347,-5.98557c0,-3.30574 1.38052,-5.98557 3.08347,-5.98557c1.70296,0 3.08347,2.67983 3.08347,5.98557z" fill="#ffffff" stroke-width="1"/><path d="M276.32581,170.11325c0,3.40386 -6.00931,6.16324 -13.42218,6.16324c-7.41287,0 -13.42218,-2.75938 -13.42218,-6.16324c0,-3.40386 6.00931,-6.16324 13.42218,-6.16324c7.41287,0 13.42218,2.75938 13.42218,6.16324z" fill="#ffffff" stroke-width="1"/><path d="M266.53126,170.29833c0,3.30573 -1.38052,5.98557 -3.08348,5.98557c-1.70296,0 -3.08347,-2.67983 -3.08347,-5.98557c0,-3.30573 1.38052,-5.98557 3.08347,-5.98557c1.70295,0 3.08348,2.67983 3.08348,5.98557z" fill="#ffffff" stroke-width="1"/></g></g></svg>